G04 #@! TF.FileFunction,Legend,Top*
%FSLAX46Y46*%
G04 Gerber Fmt 4.6, Leading zero omitted, Abs format (unit mm)*
G04 Created by KiCad (PCBNEW 4.0.6) date 2019 June 20, Thursday 16:13:16*
%MOMM*%
%LPD*%
G01*
G04 APERTURE LIST*
%ADD10C,0.100000*%
%ADD11C,0.150000*%
%ADD12C,0.300000*%
%ADD13C,0.120000*%
%ADD14C,0.127000*%
%ADD15C,0.200000*%
%ADD16C,0.203200*%
G04 APERTURE END LIST*
D10*
D11*
X85451914Y-146326943D02*
X85666200Y-146398371D01*
X86023343Y-146398371D01*
X86166200Y-146326943D01*
X86237629Y-146255514D01*
X86309057Y-146112657D01*
X86309057Y-145969800D01*
X86237629Y-145826943D01*
X86166200Y-145755514D01*
X86023343Y-145684086D01*
X85737629Y-145612657D01*
X85594771Y-145541229D01*
X85523343Y-145469800D01*
X85451914Y-145326943D01*
X85451914Y-145184086D01*
X85523343Y-145041229D01*
X85594771Y-144969800D01*
X85737629Y-144898371D01*
X86094771Y-144898371D01*
X86309057Y-144969800D01*
X86951914Y-146398371D02*
X86951914Y-144898371D01*
X86951914Y-145612657D02*
X87809057Y-145612657D01*
X87809057Y-146398371D02*
X87809057Y-144898371D01*
X88523343Y-146398371D02*
X88523343Y-144898371D01*
X89737629Y-145612657D02*
X89237629Y-145612657D01*
X89237629Y-146398371D02*
X89237629Y-144898371D01*
X89951915Y-144898371D01*
X90309057Y-144898371D02*
X91166200Y-144898371D01*
X90737629Y-146398371D02*
X90737629Y-144898371D01*
D12*
X85451890Y-143640062D02*
X85451890Y-141640062D01*
X86213795Y-141640062D01*
X86404271Y-141735300D01*
X86499510Y-141830538D01*
X86594748Y-142021014D01*
X86594748Y-142306729D01*
X86499510Y-142497205D01*
X86404271Y-142592443D01*
X86213795Y-142687681D01*
X85451890Y-142687681D01*
X87356652Y-143068633D02*
X88309033Y-143068633D01*
X87166176Y-143640062D02*
X87832843Y-141640062D01*
X88499510Y-143640062D01*
X88880462Y-141640062D02*
X90023319Y-141640062D01*
X89451891Y-143640062D02*
X89451891Y-141640062D01*
X90404272Y-141640062D02*
X91547129Y-141640062D01*
X90975701Y-143640062D02*
X90975701Y-141640062D01*
X92213796Y-142592443D02*
X92880463Y-142592443D01*
X93166177Y-143640062D02*
X92213796Y-143640062D01*
X92213796Y-141640062D01*
X93166177Y-141640062D01*
X95166178Y-143640062D02*
X94499511Y-142687681D01*
X94023320Y-143640062D02*
X94023320Y-141640062D01*
X94785225Y-141640062D01*
X94975701Y-141735300D01*
X95070940Y-141830538D01*
X95166178Y-142021014D01*
X95166178Y-142306729D01*
X95070940Y-142497205D01*
X94975701Y-142592443D01*
X94785225Y-142687681D01*
X94023320Y-142687681D01*
X96023320Y-143640062D02*
X96023320Y-141640062D01*
X97166178Y-143640062D01*
X97166178Y-141640062D01*
D11*
X85372557Y-133531871D02*
X86229700Y-133531871D01*
X85801129Y-135031871D02*
X85801129Y-133531871D01*
X86729700Y-134246157D02*
X87229700Y-134246157D01*
X87443986Y-135031871D02*
X86729700Y-135031871D01*
X86729700Y-133531871D01*
X87443986Y-133531871D01*
X88086843Y-135031871D02*
X88086843Y-133531871D01*
X88586843Y-134603300D01*
X89086843Y-133531871D01*
X89086843Y-135031871D01*
X89801129Y-135031871D02*
X89801129Y-133531871D01*
X90372557Y-133531871D01*
X90515415Y-133603300D01*
X90586843Y-133674729D01*
X90658272Y-133817586D01*
X90658272Y-134031871D01*
X90586843Y-134174729D01*
X90515415Y-134246157D01*
X90372557Y-134317586D01*
X89801129Y-134317586D01*
X91586843Y-133531871D02*
X91872557Y-133531871D01*
X92015415Y-133603300D01*
X92158272Y-133746157D01*
X92229700Y-134031871D01*
X92229700Y-134531871D01*
X92158272Y-134817586D01*
X92015415Y-134960443D01*
X91872557Y-135031871D01*
X91586843Y-135031871D01*
X91443986Y-134960443D01*
X91301129Y-134817586D01*
X91229700Y-134531871D01*
X91229700Y-134031871D01*
X91301129Y-133746157D01*
X91443986Y-133603300D01*
X91586843Y-133531871D01*
D12*
X86404271Y-132273562D02*
X85451890Y-132273562D01*
X85451890Y-130273562D01*
X87070938Y-131225943D02*
X87737605Y-131225943D01*
X88023319Y-132273562D02*
X87070938Y-132273562D01*
X87070938Y-130273562D01*
X88023319Y-130273562D01*
X88880462Y-132273562D02*
X88880462Y-130273562D01*
X90023320Y-132273562D01*
X90023320Y-130273562D01*
X92023320Y-130368800D02*
X91832843Y-130273562D01*
X91547129Y-130273562D01*
X91261415Y-130368800D01*
X91070939Y-130559276D01*
X90975700Y-130749752D01*
X90880462Y-131130705D01*
X90880462Y-131416419D01*
X90975700Y-131797371D01*
X91070939Y-131987848D01*
X91261415Y-132178324D01*
X91547129Y-132273562D01*
X91737605Y-132273562D01*
X92023320Y-132178324D01*
X92118558Y-132083086D01*
X92118558Y-131416419D01*
X91737605Y-131416419D01*
X92689986Y-130273562D02*
X93832843Y-130273562D01*
X93261415Y-132273562D02*
X93261415Y-130273562D01*
X94499510Y-132273562D02*
X94499510Y-130273562D01*
X94499510Y-131225943D02*
X95642368Y-131225943D01*
X95642368Y-132273562D02*
X95642368Y-130273562D01*
D11*
X85388414Y-100670443D02*
X85602700Y-100741871D01*
X85959843Y-100741871D01*
X86102700Y-100670443D01*
X86174129Y-100599014D01*
X86245557Y-100456157D01*
X86245557Y-100313300D01*
X86174129Y-100170443D01*
X86102700Y-100099014D01*
X85959843Y-100027586D01*
X85674129Y-99956157D01*
X85531271Y-99884729D01*
X85459843Y-99813300D01*
X85388414Y-99670443D01*
X85388414Y-99527586D01*
X85459843Y-99384729D01*
X85531271Y-99313300D01*
X85674129Y-99241871D01*
X86031271Y-99241871D01*
X86245557Y-99313300D01*
X86816985Y-100313300D02*
X87531271Y-100313300D01*
X86674128Y-100741871D02*
X87174128Y-99241871D01*
X87674128Y-100741871D01*
X87959842Y-99241871D02*
X88459842Y-100741871D01*
X88959842Y-99241871D01*
X89459842Y-99956157D02*
X89959842Y-99956157D01*
X90174128Y-100741871D02*
X89459842Y-100741871D01*
X89459842Y-99241871D01*
X90174128Y-99241871D01*
D12*
X85356652Y-97888324D02*
X85642367Y-97983562D01*
X86118557Y-97983562D01*
X86309033Y-97888324D01*
X86404271Y-97793086D01*
X86499510Y-97602610D01*
X86499510Y-97412133D01*
X86404271Y-97221657D01*
X86309033Y-97126419D01*
X86118557Y-97031181D01*
X85737605Y-96935943D01*
X85547129Y-96840705D01*
X85451890Y-96745467D01*
X85356652Y-96554990D01*
X85356652Y-96364514D01*
X85451890Y-96174038D01*
X85547129Y-96078800D01*
X85737605Y-95983562D01*
X86213795Y-95983562D01*
X86499510Y-96078800D01*
X87356652Y-96935943D02*
X88023319Y-96935943D01*
X88309033Y-97983562D02*
X87356652Y-97983562D01*
X87356652Y-95983562D01*
X88309033Y-95983562D01*
X88880462Y-95983562D02*
X90023319Y-95983562D01*
X89451891Y-97983562D02*
X89451891Y-95983562D01*
X92118558Y-96174038D02*
X92213796Y-96078800D01*
X92404273Y-95983562D01*
X92880463Y-95983562D01*
X93070939Y-96078800D01*
X93166177Y-96174038D01*
X93261416Y-96364514D01*
X93261416Y-96554990D01*
X93166177Y-96840705D01*
X92023320Y-97983562D01*
X93261416Y-97983562D01*
D11*
X86047129Y-89311871D02*
X85332843Y-89311871D01*
X85332843Y-87811871D01*
X86832843Y-87811871D02*
X87118557Y-87811871D01*
X87261415Y-87883300D01*
X87404272Y-88026157D01*
X87475700Y-88311871D01*
X87475700Y-88811871D01*
X87404272Y-89097586D01*
X87261415Y-89240443D01*
X87118557Y-89311871D01*
X86832843Y-89311871D01*
X86689986Y-89240443D01*
X86547129Y-89097586D01*
X86475700Y-88811871D01*
X86475700Y-88311871D01*
X86547129Y-88026157D01*
X86689986Y-87883300D01*
X86832843Y-87811871D01*
X88047129Y-88883300D02*
X88761415Y-88883300D01*
X87904272Y-89311871D02*
X88404272Y-87811871D01*
X88904272Y-89311871D01*
X89404272Y-89311871D02*
X89404272Y-87811871D01*
X89761415Y-87811871D01*
X89975700Y-87883300D01*
X90118558Y-88026157D01*
X90189986Y-88169014D01*
X90261415Y-88454729D01*
X90261415Y-88669014D01*
X90189986Y-88954729D01*
X90118558Y-89097586D01*
X89975700Y-89240443D01*
X89761415Y-89311871D01*
X89404272Y-89311871D01*
D12*
X85451890Y-65027062D02*
X85451890Y-63027062D01*
X86213795Y-63027062D01*
X86404271Y-63122300D01*
X86499510Y-63217538D01*
X86594748Y-63408014D01*
X86594748Y-63693729D01*
X86499510Y-63884205D01*
X86404271Y-63979443D01*
X86213795Y-64074681D01*
X85451890Y-64074681D01*
X88404271Y-65027062D02*
X87451890Y-65027062D01*
X87451890Y-63027062D01*
X88975700Y-64455633D02*
X89928081Y-64455633D01*
X88785224Y-65027062D02*
X89451891Y-63027062D01*
X90118558Y-65027062D01*
X91166177Y-64074681D02*
X91166177Y-65027062D01*
X90499510Y-63027062D02*
X91166177Y-64074681D01*
X91832844Y-63027062D01*
X85451890Y-76393562D02*
X85451890Y-74393562D01*
X86213795Y-74393562D01*
X86404271Y-74488800D01*
X86499510Y-74584038D01*
X86594748Y-74774514D01*
X86594748Y-75060229D01*
X86499510Y-75250705D01*
X86404271Y-75345943D01*
X86213795Y-75441181D01*
X85451890Y-75441181D01*
X88404271Y-76393562D02*
X87451890Y-76393562D01*
X87451890Y-74393562D01*
X89451891Y-74393562D02*
X89832843Y-74393562D01*
X90023319Y-74488800D01*
X90213796Y-74679276D01*
X90309034Y-75060229D01*
X90309034Y-75726895D01*
X90213796Y-76107848D01*
X90023319Y-76298324D01*
X89832843Y-76393562D01*
X89451891Y-76393562D01*
X89261415Y-76298324D01*
X89070938Y-76107848D01*
X88975700Y-75726895D01*
X88975700Y-75060229D01*
X89070938Y-74679276D01*
X89261415Y-74488800D01*
X89451891Y-74393562D01*
X92309034Y-76203086D02*
X92213796Y-76298324D01*
X91928081Y-76393562D01*
X91737605Y-76393562D01*
X91451891Y-76298324D01*
X91261415Y-76107848D01*
X91166176Y-75917371D01*
X91070938Y-75536419D01*
X91070938Y-75250705D01*
X91166176Y-74869752D01*
X91261415Y-74679276D01*
X91451891Y-74488800D01*
X91737605Y-74393562D01*
X91928081Y-74393562D01*
X92213796Y-74488800D01*
X92309034Y-74584038D01*
X93166176Y-76393562D02*
X93166176Y-74393562D01*
X94309034Y-76393562D02*
X93451891Y-75250705D01*
X94309034Y-74393562D02*
X93166176Y-75536419D01*
X85356652Y-86458324D02*
X85642367Y-86553562D01*
X86118557Y-86553562D01*
X86309033Y-86458324D01*
X86404271Y-86363086D01*
X86499510Y-86172610D01*
X86499510Y-85982133D01*
X86404271Y-85791657D01*
X86309033Y-85696419D01*
X86118557Y-85601181D01*
X85737605Y-85505943D01*
X85547129Y-85410705D01*
X85451890Y-85315467D01*
X85356652Y-85124990D01*
X85356652Y-84934514D01*
X85451890Y-84744038D01*
X85547129Y-84648800D01*
X85737605Y-84553562D01*
X86213795Y-84553562D01*
X86499510Y-84648800D01*
X87356652Y-85505943D02*
X88023319Y-85505943D01*
X88309033Y-86553562D02*
X87356652Y-86553562D01*
X87356652Y-84553562D01*
X88309033Y-84553562D01*
X88880462Y-84553562D02*
X90023319Y-84553562D01*
X89451891Y-86553562D02*
X89451891Y-84553562D01*
X93261416Y-86553562D02*
X92118558Y-86553562D01*
X92689987Y-86553562D02*
X92689987Y-84553562D01*
X92499511Y-84839276D01*
X92309035Y-85029752D01*
X92118558Y-85124990D01*
X85356652Y-110588324D02*
X85642367Y-110683562D01*
X86118557Y-110683562D01*
X86309033Y-110588324D01*
X86404271Y-110493086D01*
X86499510Y-110302610D01*
X86499510Y-110112133D01*
X86404271Y-109921657D01*
X86309033Y-109826419D01*
X86118557Y-109731181D01*
X85737605Y-109635943D01*
X85547129Y-109540705D01*
X85451890Y-109445467D01*
X85356652Y-109254990D01*
X85356652Y-109064514D01*
X85451890Y-108874038D01*
X85547129Y-108778800D01*
X85737605Y-108683562D01*
X86213795Y-108683562D01*
X86499510Y-108778800D01*
X87356652Y-109635943D02*
X88023319Y-109635943D01*
X88309033Y-110683562D02*
X87356652Y-110683562D01*
X87356652Y-108683562D01*
X88309033Y-108683562D01*
X88880462Y-108683562D02*
X90023319Y-108683562D01*
X89451891Y-110683562D02*
X89451891Y-108683562D01*
X92023320Y-108683562D02*
X93261416Y-108683562D01*
X92594749Y-109445467D01*
X92880463Y-109445467D01*
X93070939Y-109540705D01*
X93166177Y-109635943D01*
X93261416Y-109826419D01*
X93261416Y-110302610D01*
X93166177Y-110493086D01*
X93070939Y-110588324D01*
X92880463Y-110683562D01*
X92309035Y-110683562D01*
X92118558Y-110588324D01*
X92023320Y-110493086D01*
X85451890Y-122050062D02*
X85451890Y-120050062D01*
X86118557Y-121478633D01*
X86785224Y-120050062D01*
X86785224Y-122050062D01*
X87737604Y-120050062D02*
X87737604Y-121669110D01*
X87832843Y-121859586D01*
X87928081Y-121954824D01*
X88118557Y-122050062D01*
X88499509Y-122050062D01*
X88689985Y-121954824D01*
X88785224Y-121859586D01*
X88880462Y-121669110D01*
X88880462Y-120050062D01*
X89547128Y-120050062D02*
X90689985Y-120050062D01*
X90118557Y-122050062D02*
X90118557Y-120050062D01*
X91356652Y-121002443D02*
X92023319Y-121002443D01*
X92309033Y-122050062D02*
X91356652Y-122050062D01*
X91356652Y-120050062D01*
X92309033Y-120050062D01*
X171613034Y-146922967D02*
X171613034Y-144122967D01*
X172679700Y-144122967D01*
X172946367Y-144256300D01*
X173079700Y-144389633D01*
X173213034Y-144656300D01*
X173213034Y-145056300D01*
X173079700Y-145322967D01*
X172946367Y-145456300D01*
X172679700Y-145589633D01*
X171613034Y-145589633D01*
X174946367Y-144122967D02*
X175479700Y-144122967D01*
X175746367Y-144256300D01*
X176013034Y-144522967D01*
X176146367Y-145056300D01*
X176146367Y-145989633D01*
X176013034Y-146522967D01*
X175746367Y-146789633D01*
X175479700Y-146922967D01*
X174946367Y-146922967D01*
X174679700Y-146789633D01*
X174413034Y-146522967D01*
X174279700Y-145989633D01*
X174279700Y-145056300D01*
X174413034Y-144522967D01*
X174679700Y-144256300D01*
X174946367Y-144122967D01*
X178679700Y-146922967D02*
X177346367Y-146922967D01*
X177346367Y-144122967D01*
X179479700Y-146122967D02*
X180813034Y-146122967D01*
X179213034Y-146922967D02*
X180146367Y-144122967D01*
X181079700Y-146922967D01*
X183613034Y-146922967D02*
X182679700Y-145589633D01*
X182013034Y-146922967D02*
X182013034Y-144122967D01*
X183079700Y-144122967D01*
X183346367Y-144256300D01*
X183479700Y-144389633D01*
X183613034Y-144656300D01*
X183613034Y-145056300D01*
X183479700Y-145322967D01*
X183346367Y-145456300D01*
X183079700Y-145589633D01*
X182013034Y-145589633D01*
X185346367Y-144122967D02*
X185879700Y-144122967D01*
X186146367Y-144256300D01*
X186413034Y-144522967D01*
X186546367Y-145056300D01*
X186546367Y-145989633D01*
X186413034Y-146522967D01*
X186146367Y-146789633D01*
X185879700Y-146922967D01*
X185346367Y-146922967D01*
X185079700Y-146789633D01*
X184813034Y-146522967D01*
X184679700Y-145989633D01*
X184679700Y-145056300D01*
X184813034Y-144522967D01*
X185079700Y-144256300D01*
X185346367Y-144122967D01*
X187746367Y-146922967D02*
X187746367Y-144122967D01*
X189346367Y-146922967D01*
X189346367Y-144122967D01*
D13*
X197188268Y-70499818D02*
G75*
G02X202712700Y-70498800I2762432J-1171982D01*
G01*
X202248453Y-73600095D02*
G75*
G02X197652700Y-73599800I-2297753J1928295D01*
G01*
X194989700Y-78231800D02*
X194989700Y-74365800D01*
X194989700Y-69976800D02*
X194989700Y-66111800D01*
X204910700Y-78231800D02*
X204910700Y-74365800D01*
X204910700Y-69976800D02*
X204910700Y-66111800D01*
X194989700Y-78231800D02*
X196625700Y-78231800D01*
X198275700Y-78231800D02*
X199125700Y-78231800D01*
X200775700Y-78231800D02*
X201625700Y-78231800D01*
X203275700Y-78231800D02*
X204910700Y-78231800D01*
X194989700Y-66111800D02*
X204910700Y-66111800D01*
X213761768Y-70499818D02*
G75*
G02X219286200Y-70498800I2762432J-1171982D01*
G01*
X218821953Y-73600095D02*
G75*
G02X214226200Y-73599800I-2297753J1928295D01*
G01*
X211563200Y-78231800D02*
X211563200Y-74365800D01*
X211563200Y-69976800D02*
X211563200Y-66111800D01*
X221484200Y-78231800D02*
X221484200Y-74365800D01*
X221484200Y-69976800D02*
X221484200Y-66111800D01*
X211563200Y-78231800D02*
X213199200Y-78231800D01*
X214849200Y-78231800D02*
X215699200Y-78231800D01*
X217349200Y-78231800D02*
X218199200Y-78231800D01*
X219849200Y-78231800D02*
X221484200Y-78231800D01*
X211563200Y-66111800D02*
X221484200Y-66111800D01*
D14*
X223159200Y-46580800D02*
X223159200Y-47080800D01*
X223159200Y-47080800D02*
X223159200Y-52080800D01*
X223159200Y-52080800D02*
X223159200Y-52580800D01*
X223159200Y-52580800D02*
X220059200Y-52580800D01*
X217459200Y-52580800D02*
X208659200Y-52580800D01*
X208659200Y-52580800D02*
X208659200Y-46580800D01*
X223159200Y-46580800D02*
X222059200Y-46580800D01*
X219459200Y-46580800D02*
X212959200Y-46580800D01*
D15*
X224059200Y-46280800D02*
G75*
G03X224059200Y-46280800I-100000J0D01*
G01*
D14*
X209759200Y-46580800D02*
X208659200Y-46580800D01*
X223159200Y-52080800D02*
X225659200Y-52080800D01*
X225659200Y-52080800D02*
X225659200Y-47080800D01*
X225659200Y-47080800D02*
X223159200Y-47080800D01*
D13*
X122263486Y-122448367D02*
X127213233Y-127398114D01*
X118586531Y-126125322D02*
X123536278Y-131075069D01*
X123536278Y-131075069D02*
X124243385Y-130367963D01*
X77664000Y-147549600D02*
X77664000Y-140549600D01*
X82864000Y-147549600D02*
X82864000Y-140549600D01*
X82864000Y-140549600D02*
X81864000Y-140549600D01*
X77664000Y-136129600D02*
X77664000Y-129129600D01*
X82864000Y-136129600D02*
X82864000Y-129129600D01*
X82864000Y-129129600D02*
X81864000Y-129129600D01*
X77664000Y-124709600D02*
X77664000Y-117709600D01*
X82864000Y-124709600D02*
X82864000Y-117709600D01*
X82864000Y-117709600D02*
X81864000Y-117709600D01*
X77664000Y-113289600D02*
X77664000Y-106289600D01*
X82864000Y-113289600D02*
X82864000Y-106289600D01*
X82864000Y-106289600D02*
X81864000Y-106289600D01*
X77664000Y-101869600D02*
X77664000Y-94869600D01*
X82864000Y-101869600D02*
X82864000Y-94869600D01*
X82864000Y-94869600D02*
X81864000Y-94869600D01*
X77664000Y-90449600D02*
X77664000Y-83449600D01*
X82864000Y-90449600D02*
X82864000Y-83449600D01*
X82864000Y-83449600D02*
X81864000Y-83449600D01*
X77664000Y-79029600D02*
X77664000Y-72029600D01*
X82864000Y-79029600D02*
X82864000Y-72029600D01*
X82864000Y-72029600D02*
X81864000Y-72029600D01*
X77664000Y-67609600D02*
X77664000Y-60609600D01*
X82864000Y-67609600D02*
X82864000Y-60609600D01*
X82864000Y-60609600D02*
X81864000Y-60609600D01*
X213928000Y-140518800D02*
X213928000Y-147518800D01*
X208728000Y-140518800D02*
X208728000Y-147518800D01*
X208728000Y-147518800D02*
X209728000Y-147518800D01*
X213928000Y-129098800D02*
X213928000Y-136098800D01*
X208728000Y-129098800D02*
X208728000Y-136098800D01*
X208728000Y-136098800D02*
X209728000Y-136098800D01*
X213928000Y-117678800D02*
X213928000Y-124678800D01*
X208728000Y-117678800D02*
X208728000Y-124678800D01*
X208728000Y-124678800D02*
X209728000Y-124678800D01*
X213928000Y-106258800D02*
X213928000Y-113258800D01*
X208728000Y-106258800D02*
X208728000Y-113258800D01*
X208728000Y-113258800D02*
X209728000Y-113258800D01*
X213928000Y-94838800D02*
X213928000Y-101838800D01*
X208728000Y-94838800D02*
X208728000Y-101838800D01*
X208728000Y-101838800D02*
X209728000Y-101838800D01*
X213928000Y-83418800D02*
X213928000Y-90418800D01*
X208728000Y-83418800D02*
X208728000Y-90418800D01*
X208728000Y-90418800D02*
X209728000Y-90418800D01*
X142296000Y-133645600D02*
X149296000Y-133645600D01*
X142296000Y-138845600D02*
X149296000Y-138845600D01*
X149296000Y-138845600D02*
X149296000Y-137845600D01*
X153958735Y-132718124D02*
X160425891Y-130039340D01*
X155948689Y-137522298D02*
X162415845Y-134843514D01*
X162415845Y-134843514D02*
X162033162Y-133919634D01*
X164378767Y-127398114D02*
X169328514Y-122448367D01*
X168055722Y-131075069D02*
X173005469Y-126125322D01*
X173005469Y-126125322D02*
X172298363Y-125418215D01*
X171969740Y-118495491D02*
X174648524Y-112028335D01*
X176773914Y-120485445D02*
X179452698Y-114018289D01*
X179452698Y-114018289D02*
X178528818Y-113635605D01*
X175576000Y-107365600D02*
X175576000Y-100365600D01*
X180776000Y-107365600D02*
X180776000Y-100365600D01*
X180776000Y-100365600D02*
X179776000Y-100365600D01*
X174648524Y-95702865D02*
X171969740Y-89235709D01*
X179452698Y-93712911D02*
X176773914Y-87245755D01*
X176773914Y-87245755D02*
X175850034Y-87628438D01*
X169328514Y-85282833D02*
X164378767Y-80333086D01*
X173005469Y-81605878D02*
X168055722Y-76656131D01*
X168055722Y-76656131D02*
X167348615Y-77363237D01*
X160425891Y-77691860D02*
X153958735Y-75013076D01*
X162415845Y-72887686D02*
X155948689Y-70208902D01*
X155948689Y-70208902D02*
X155566005Y-71132782D01*
X149296000Y-74085600D02*
X142296000Y-74085600D01*
X149296000Y-68885600D02*
X142296000Y-68885600D01*
X142296000Y-68885600D02*
X142296000Y-69885600D01*
X137633265Y-75013076D02*
X131166109Y-77691860D01*
X135643311Y-70208902D02*
X129176155Y-72887686D01*
X129176155Y-72887686D02*
X129558838Y-73811566D01*
X127213233Y-80333086D02*
X122263486Y-85282833D01*
X123536278Y-76656131D02*
X118586531Y-81605878D01*
X118586531Y-81605878D02*
X119293637Y-82312985D01*
X119622260Y-89235709D02*
X116943476Y-95702865D01*
X114818086Y-87245755D02*
X112139302Y-93712911D01*
X112139302Y-93712911D02*
X113063182Y-94095595D01*
X116016000Y-100365600D02*
X116016000Y-107365600D01*
X110816000Y-100365600D02*
X110816000Y-107365600D01*
X110816000Y-107365600D02*
X111816000Y-107365600D01*
X116943476Y-112028335D02*
X119622260Y-118495491D01*
X112139302Y-114018289D02*
X114818086Y-120485445D01*
X114818086Y-120485445D02*
X115741966Y-120102762D01*
X131166109Y-130039340D02*
X137633265Y-132718124D01*
X129176155Y-134843514D02*
X135643311Y-137522298D01*
X135643311Y-137522298D02*
X136025995Y-136598418D01*
D16*
X147955000Y-140817600D02*
X143637000Y-140817600D01*
X143637000Y-146913600D02*
X147955000Y-146913600D01*
X148844000Y-142869920D02*
X148844000Y-144881600D01*
X142748000Y-142839440D02*
X142748000Y-144881600D01*
X147574000Y-143865600D02*
G75*
G03X147574000Y-143865600I-1778000J0D01*
G01*
X161931574Y-137178583D02*
X157942262Y-138831010D01*
X160275100Y-144462979D02*
X164264412Y-142810552D01*
X163538292Y-138734474D02*
X164308128Y-140593024D01*
X157894658Y-141039152D02*
X158676159Y-142925862D01*
X162881337Y-140820781D02*
G75*
G03X162881337Y-140820781I-1778000J0D01*
G01*
X173451653Y-128467966D02*
X170398366Y-131521253D01*
X174708889Y-135831776D02*
X177762176Y-132778489D01*
X175531480Y-129290557D02*
X176953953Y-130713030D01*
X171199405Y-133579528D02*
X172643430Y-135023553D01*
X175858271Y-132149871D02*
G75*
G03X175858271Y-132149871I-1778000J0D01*
G01*
X180761410Y-116011862D02*
X179108983Y-120001174D01*
X184740952Y-122334012D02*
X186393379Y-118344700D01*
X182997712Y-115975922D02*
X184856262Y-116745759D01*
X180636714Y-121596227D02*
X182523424Y-122377728D01*
X184529181Y-119172937D02*
G75*
G03X184529181Y-119172937I-1778000J0D01*
G01*
X182748000Y-101706600D02*
X182748000Y-106024600D01*
X188844000Y-106024600D02*
X188844000Y-101706600D01*
X184800320Y-100817600D02*
X186812000Y-100817600D01*
X184769840Y-106913600D02*
X186812000Y-106913600D01*
X187574000Y-103865600D02*
G75*
G03X187574000Y-103865600I-1778000J0D01*
G01*
X179108983Y-87730026D02*
X180761410Y-91719338D01*
X186393379Y-89386500D02*
X184740952Y-85397188D01*
X180664874Y-86123308D02*
X182523424Y-85353472D01*
X182969552Y-91766942D02*
X184856262Y-90985441D01*
X184529181Y-88558263D02*
G75*
G03X184529181Y-88558263I-1778000J0D01*
G01*
X170398366Y-76209947D02*
X173451653Y-79263234D01*
X177762176Y-74952711D02*
X174708889Y-71899424D01*
X171220957Y-74130120D02*
X172643430Y-72707647D01*
X175509928Y-78462195D02*
X176953953Y-77018170D01*
X175858271Y-75581329D02*
G75*
G03X175858271Y-75581329I-1778000J0D01*
G01*
X157942262Y-68900190D02*
X161931574Y-70552617D01*
X164264412Y-64920648D02*
X160275100Y-63268221D01*
X157906322Y-66663888D02*
X158676159Y-64805338D01*
X163526627Y-69024886D02*
X164308128Y-67138176D01*
X162881337Y-66910419D02*
G75*
G03X162881337Y-66910419I-1778000J0D01*
G01*
X143637000Y-66913600D02*
X147955000Y-66913600D01*
X147955000Y-60817600D02*
X143637000Y-60817600D01*
X142748000Y-64861280D02*
X142748000Y-62849600D01*
X148844000Y-64891760D02*
X148844000Y-62849600D01*
X147574000Y-63865600D02*
G75*
G03X147574000Y-63865600I-1778000J0D01*
G01*
X129660426Y-70552617D02*
X133649738Y-68900190D01*
X131316900Y-63268221D02*
X127327588Y-64920648D01*
X128053708Y-68996726D02*
X127283872Y-67138176D01*
X133697342Y-66692048D02*
X132915841Y-64805338D01*
X132266663Y-66910419D02*
G75*
G03X132266663Y-66910419I-1778000J0D01*
G01*
X118140347Y-79263234D02*
X121193634Y-76209947D01*
X116883111Y-71899424D02*
X113829824Y-74952711D01*
X116060520Y-78440643D02*
X114638047Y-77018170D01*
X120392595Y-74151672D02*
X118948570Y-72707647D01*
X119289729Y-75581329D02*
G75*
G03X119289729Y-75581329I-1778000J0D01*
G01*
X110830590Y-91719338D02*
X112483017Y-87730026D01*
X106851048Y-85397188D02*
X105198621Y-89386500D01*
X108594288Y-91755278D02*
X106735738Y-90985441D01*
X110955286Y-86134973D02*
X109068576Y-85353472D01*
X110618819Y-88558263D02*
G75*
G03X110618819Y-88558263I-1778000J0D01*
G01*
X108844000Y-106024600D02*
X108844000Y-101706600D01*
X102748000Y-101706600D02*
X102748000Y-106024600D01*
X106791680Y-106913600D02*
X104780000Y-106913600D01*
X106822160Y-100817600D02*
X104780000Y-100817600D01*
X107574000Y-103865600D02*
G75*
G03X107574000Y-103865600I-1778000J0D01*
G01*
X112483017Y-120001174D02*
X110830590Y-116011862D01*
X105198621Y-118344700D02*
X106851048Y-122334012D01*
X110927126Y-121607892D02*
X109068576Y-122377728D01*
X108622448Y-115964258D02*
X106735738Y-116745759D01*
X110618819Y-119172937D02*
G75*
G03X110618819Y-119172937I-1778000J0D01*
G01*
X121193634Y-131521253D02*
X118140347Y-128467966D01*
X113829824Y-132778489D02*
X116883111Y-135831776D01*
X120371043Y-133601080D02*
X118948570Y-135023553D01*
X116082072Y-129269005D02*
X114638047Y-130713030D01*
X119289729Y-132149871D02*
G75*
G03X119289729Y-132149871I-1778000J0D01*
G01*
X133649738Y-138831010D02*
X129660426Y-137178583D01*
X127327588Y-142810552D02*
X131316900Y-144462979D01*
X133685678Y-141067312D02*
X132915841Y-142925862D01*
X128065373Y-138706314D02*
X127283872Y-140593024D01*
X132266663Y-140820781D02*
G75*
G03X132266663Y-140820781I-1778000J0D01*
G01*
X75595480Y-66187320D02*
X75595480Y-61869320D01*
X69499480Y-61869320D02*
X69499480Y-66187320D01*
X73543160Y-67076320D02*
X71531480Y-67076320D01*
X73573640Y-60980320D02*
X71531480Y-60980320D01*
X74325480Y-64028320D02*
G75*
G03X74325480Y-64028320I-1778000J0D01*
G01*
X75595480Y-77607320D02*
X75595480Y-73289320D01*
X69499480Y-73289320D02*
X69499480Y-77607320D01*
X73543160Y-78496320D02*
X71531480Y-78496320D01*
X73573640Y-72400320D02*
X71531480Y-72400320D01*
X74325480Y-75448320D02*
G75*
G03X74325480Y-75448320I-1778000J0D01*
G01*
X75595480Y-89027320D02*
X75595480Y-84709320D01*
X69499480Y-84709320D02*
X69499480Y-89027320D01*
X73543160Y-89916320D02*
X71531480Y-89916320D01*
X73573640Y-83820320D02*
X71531480Y-83820320D01*
X74325480Y-86868320D02*
G75*
G03X74325480Y-86868320I-1778000J0D01*
G01*
X75595480Y-100447320D02*
X75595480Y-96129320D01*
X69499480Y-96129320D02*
X69499480Y-100447320D01*
X73543160Y-101336320D02*
X71531480Y-101336320D01*
X73573640Y-95240320D02*
X71531480Y-95240320D01*
X74325480Y-98288320D02*
G75*
G03X74325480Y-98288320I-1778000J0D01*
G01*
X75595480Y-111867320D02*
X75595480Y-107549320D01*
X69499480Y-107549320D02*
X69499480Y-111867320D01*
X73543160Y-112756320D02*
X71531480Y-112756320D01*
X73573640Y-106660320D02*
X71531480Y-106660320D01*
X74325480Y-109708320D02*
G75*
G03X74325480Y-109708320I-1778000J0D01*
G01*
X75595480Y-123287320D02*
X75595480Y-118969320D01*
X69499480Y-118969320D02*
X69499480Y-123287320D01*
X73543160Y-124176320D02*
X71531480Y-124176320D01*
X73573640Y-118080320D02*
X71531480Y-118080320D01*
X74325480Y-121128320D02*
G75*
G03X74325480Y-121128320I-1778000J0D01*
G01*
X75595480Y-134707320D02*
X75595480Y-130389320D01*
X69499480Y-130389320D02*
X69499480Y-134707320D01*
X73543160Y-135596320D02*
X71531480Y-135596320D01*
X73573640Y-129500320D02*
X71531480Y-129500320D01*
X74325480Y-132548320D02*
G75*
G03X74325480Y-132548320I-1778000J0D01*
G01*
X75595480Y-146127320D02*
X75595480Y-141809320D01*
X69499480Y-141809320D02*
X69499480Y-146127320D01*
X73543160Y-147016320D02*
X71531480Y-147016320D01*
X73573640Y-140920320D02*
X71531480Y-140920320D01*
X74325480Y-143968320D02*
G75*
G03X74325480Y-143968320I-1778000J0D01*
G01*
X216123520Y-84729320D02*
X216123520Y-89047320D01*
X222219520Y-89047320D02*
X222219520Y-84729320D01*
X218175840Y-83840320D02*
X220187520Y-83840320D01*
X218145360Y-89936320D02*
X220187520Y-89936320D01*
X220949520Y-86888320D02*
G75*
G03X220949520Y-86888320I-1778000J0D01*
G01*
X216123520Y-96149320D02*
X216123520Y-100467320D01*
X222219520Y-100467320D02*
X222219520Y-96149320D01*
X218175840Y-95260320D02*
X220187520Y-95260320D01*
X218145360Y-101356320D02*
X220187520Y-101356320D01*
X220949520Y-98308320D02*
G75*
G03X220949520Y-98308320I-1778000J0D01*
G01*
X216123520Y-107569320D02*
X216123520Y-111887320D01*
X222219520Y-111887320D02*
X222219520Y-107569320D01*
X218175840Y-106680320D02*
X220187520Y-106680320D01*
X218145360Y-112776320D02*
X220187520Y-112776320D01*
X220949520Y-109728320D02*
G75*
G03X220949520Y-109728320I-1778000J0D01*
G01*
X216123520Y-118989320D02*
X216123520Y-123307320D01*
X222219520Y-123307320D02*
X222219520Y-118989320D01*
X218175840Y-118100320D02*
X220187520Y-118100320D01*
X218145360Y-124196320D02*
X220187520Y-124196320D01*
X220949520Y-121148320D02*
G75*
G03X220949520Y-121148320I-1778000J0D01*
G01*
X216123520Y-130409320D02*
X216123520Y-134727320D01*
X222219520Y-134727320D02*
X222219520Y-130409320D01*
X218175840Y-129520320D02*
X220187520Y-129520320D01*
X218145360Y-135616320D02*
X220187520Y-135616320D01*
X220949520Y-132568320D02*
G75*
G03X220949520Y-132568320I-1778000J0D01*
G01*
X216123520Y-141829320D02*
X216123520Y-146147320D01*
X222219520Y-146147320D02*
X222219520Y-141829320D01*
X218175840Y-140940320D02*
X220187520Y-140940320D01*
X218145360Y-147036320D02*
X220187520Y-147036320D01*
X220949520Y-143988320D02*
G75*
G03X220949520Y-143988320I-1778000J0D01*
G01*
D13*
X215345200Y-40166800D02*
X215345200Y-38166800D01*
X213305200Y-38166800D02*
X213305200Y-40166800D01*
X212297200Y-40166800D02*
X212297200Y-38166800D01*
X210257200Y-38166800D02*
X210257200Y-40166800D01*
D14*
X69268700Y-52644300D02*
X69268700Y-52144300D01*
X69268700Y-52144300D02*
X69268700Y-47144300D01*
X69268700Y-47144300D02*
X69268700Y-46644300D01*
X69268700Y-46644300D02*
X72368700Y-46644300D01*
X74968700Y-46644300D02*
X83768700Y-46644300D01*
X83768700Y-46644300D02*
X83768700Y-52644300D01*
X69268700Y-52644300D02*
X70368700Y-52644300D01*
X72968700Y-52644300D02*
X79468700Y-52644300D01*
D15*
X68568700Y-52944300D02*
G75*
G03X68568700Y-52944300I-100000J0D01*
G01*
D14*
X82668700Y-52644300D02*
X83768700Y-52644300D01*
X69268700Y-47144300D02*
X66768700Y-47144300D01*
X66768700Y-47144300D02*
X66768700Y-52144300D01*
X66768700Y-52144300D02*
X69268700Y-52144300D01*
D13*
X76476200Y-39944800D02*
X76476200Y-37944800D01*
X78616200Y-37944800D02*
X78616200Y-39944800D01*
M02*
