G04 #@! TF.FileFunction,Soldermask,Bot*
%FSLAX46Y46*%
G04 Gerber Fmt 4.6, Leading zero omitted, Abs format (unit mm)*
G04 Created by KiCad (PCBNEW 4.0.6) date 2019 June 20, Thursday 16:13:16*
%MOMM*%
%LPD*%
G01*
G04 APERTURE LIST*
%ADD10C,0.100000*%
%ADD11R,2.000000X2.000000*%
%ADD12O,2.000000X2.000000*%
%ADD13R,2.400000X2.100000*%
%ADD14C,2.200000*%
%ADD15C,4.400000*%
%ADD16C,6.100000*%
%ADD17O,3.041600X1.720800*%
%ADD18C,2.000000*%
%ADD19C,2.100000*%
%ADD20C,2.279600*%
%ADD21C,2.800000*%
%ADD22O,2.800000X2.800000*%
%ADD23C,2.800000*%
%ADD24C,1.920000*%
%ADD25R,1.920000X1.920000*%
%ADD26R,2.100000X2.400000*%
G04 APERTURE END LIST*
D10*
D11*
X78181200Y-44564300D03*
D12*
X80721200Y-44564300D03*
D13*
X78244200Y-56057800D03*
X74244200Y-56057800D03*
D14*
X197450700Y-79171800D03*
X199950700Y-79171800D03*
X202450700Y-79171800D03*
D15*
X195550700Y-72171800D03*
X204350700Y-72171800D03*
D14*
X214024200Y-79171800D03*
X216524200Y-79171800D03*
X219024200Y-79171800D03*
D15*
X212124200Y-72171800D03*
X220924200Y-72171800D03*
D16*
X220167200Y-38912800D03*
D17*
X191511200Y-40182800D03*
X191511200Y-42722800D03*
X191511200Y-45262800D03*
X191511200Y-47802800D03*
X191511200Y-50342800D03*
X191511200Y-52882800D03*
X191511200Y-55422800D03*
X191511200Y-57962800D03*
X183891200Y-57962800D03*
X183891200Y-55422800D03*
X183891200Y-52882800D03*
X183891200Y-50342800D03*
X183891200Y-47802800D03*
X183891200Y-45262800D03*
X183891200Y-42722800D03*
X183891200Y-40182800D03*
D18*
X134061200Y-55422800D03*
X131521200Y-55422800D03*
X128981200Y-55422800D03*
X126441200Y-55422800D03*
X136601200Y-55422800D03*
X139141200Y-55422800D03*
X141681200Y-55422800D03*
X123901200Y-55422800D03*
X121361200Y-55422800D03*
X118821200Y-55422800D03*
X116281200Y-55422800D03*
X116281200Y-40182800D03*
X118821200Y-40182800D03*
X121361200Y-40182800D03*
X123901200Y-40182800D03*
X126441200Y-40182800D03*
X128981200Y-40182800D03*
X131521200Y-40182800D03*
X134061200Y-40182800D03*
X144221200Y-55422800D03*
X146761200Y-55422800D03*
X149301200Y-55422800D03*
X151841200Y-55422800D03*
X154381200Y-55422800D03*
X156921200Y-55422800D03*
X159461200Y-55422800D03*
X162001200Y-55422800D03*
X164541200Y-55422800D03*
X167081200Y-55422800D03*
X169621200Y-55422800D03*
X172161200Y-55422800D03*
D11*
X174701200Y-55422800D03*
D18*
X136601200Y-40182800D03*
X139141200Y-40182800D03*
X141681200Y-40182800D03*
X144221200Y-40182800D03*
X146761200Y-40182800D03*
X149301200Y-40182800D03*
X151841200Y-40182800D03*
X154381200Y-40182800D03*
X156921200Y-40182800D03*
X159461200Y-40182800D03*
X162001200Y-40182800D03*
X164541200Y-40182800D03*
X167081200Y-40182800D03*
X169621200Y-40182800D03*
X172161200Y-40182800D03*
X174701200Y-40182800D03*
D17*
X204211200Y-40182800D03*
X204211200Y-42722800D03*
X204211200Y-45262800D03*
X204211200Y-47802800D03*
X204211200Y-50342800D03*
X204211200Y-52882800D03*
X204211200Y-55422800D03*
X204211200Y-57962800D03*
X196591200Y-57962800D03*
X196591200Y-55422800D03*
X196591200Y-52882800D03*
X196591200Y-50342800D03*
X196591200Y-47802800D03*
X196591200Y-45262800D03*
X196591200Y-42722800D03*
X196591200Y-40182800D03*
X107391200Y-40182800D03*
X107391200Y-42722800D03*
X107391200Y-45262800D03*
X107391200Y-47802800D03*
X107391200Y-50342800D03*
X107391200Y-52882800D03*
X107391200Y-55422800D03*
X107391200Y-57962800D03*
X99771200Y-57962800D03*
X99771200Y-55422800D03*
X99771200Y-52882800D03*
X99771200Y-50342800D03*
X99771200Y-47802800D03*
X99771200Y-45262800D03*
X99771200Y-42722800D03*
X99771200Y-40182800D03*
D19*
X219659200Y-49580800D03*
X212659200Y-49580800D03*
D17*
X94691200Y-40182800D03*
X94691200Y-42722800D03*
X94691200Y-45262800D03*
X94691200Y-47802800D03*
X94691200Y-50342800D03*
X94691200Y-52882800D03*
X94691200Y-55422800D03*
X94691200Y-57962800D03*
X87071200Y-57962800D03*
X87071200Y-55422800D03*
X87071200Y-52882800D03*
X87071200Y-50342800D03*
X87071200Y-47802800D03*
X87071200Y-45262800D03*
X87071200Y-42722800D03*
X87071200Y-40182800D03*
D20*
X142544800Y-141605000D03*
X149047200Y-141605000D03*
X142544800Y-146126200D03*
X149047200Y-146126200D03*
X157234526Y-139976439D03*
X163241960Y-137488079D03*
X158964714Y-144153483D03*
X164972148Y-141665123D03*
X170182840Y-132850331D03*
X174780731Y-128252440D03*
X173379811Y-136047302D03*
X177977702Y-131449411D03*
X179418479Y-121311560D03*
X181906839Y-115304126D03*
X183595523Y-123041748D03*
X186083883Y-117034314D03*
X183535400Y-107116800D03*
X183535400Y-100614400D03*
X188056600Y-107116800D03*
X188056600Y-100614400D03*
X181906839Y-92427074D03*
X179418479Y-86419640D03*
X186083883Y-90696886D03*
X183595523Y-84689452D03*
X174780731Y-79478760D03*
X170182840Y-74880869D03*
X177977702Y-76281789D03*
X173379811Y-71683898D03*
X163241960Y-70243121D03*
X157234526Y-67754761D03*
X164972148Y-66066077D03*
X158964714Y-63577717D03*
X149047200Y-66126200D03*
X142544800Y-66126200D03*
X149047200Y-61605000D03*
X142544800Y-61605000D03*
X134357474Y-67754761D03*
X128350040Y-70243121D03*
X132627286Y-63577717D03*
X126619852Y-66066077D03*
X121409160Y-74880869D03*
X116811269Y-79478760D03*
X118212189Y-71683898D03*
X113614298Y-76281789D03*
X112173521Y-86419640D03*
X109685161Y-92427074D03*
X107996477Y-84689452D03*
X105508117Y-90696886D03*
X108056600Y-100614400D03*
X108056600Y-107116800D03*
X103535400Y-100614400D03*
X103535400Y-107116800D03*
X109685161Y-115304126D03*
X112173521Y-121311560D03*
X105508117Y-117034314D03*
X107996477Y-123041748D03*
X116811269Y-128252440D03*
X121409160Y-132850331D03*
X113614298Y-131449411D03*
X118212189Y-136047302D03*
X128350040Y-137488079D03*
X134357474Y-139976439D03*
X126619852Y-141665123D03*
X132627286Y-144153483D03*
X74808080Y-60777120D03*
X74808080Y-67279520D03*
X70286880Y-60777120D03*
X70286880Y-67279520D03*
X74808080Y-72197120D03*
X74808080Y-78699520D03*
X70286880Y-72197120D03*
X70286880Y-78699520D03*
X74808080Y-83617120D03*
X74808080Y-90119520D03*
X70286880Y-83617120D03*
X70286880Y-90119520D03*
X74808080Y-95037120D03*
X74808080Y-101539520D03*
X70286880Y-95037120D03*
X70286880Y-101539520D03*
X74808080Y-106457120D03*
X74808080Y-112959520D03*
X70286880Y-106457120D03*
X70286880Y-112959520D03*
X74808080Y-117877120D03*
X74808080Y-124379520D03*
X70286880Y-117877120D03*
X70286880Y-124379520D03*
X74808080Y-129297120D03*
X74808080Y-135799520D03*
X70286880Y-129297120D03*
X70286880Y-135799520D03*
X74808080Y-140717120D03*
X74808080Y-147219520D03*
X70286880Y-140717120D03*
X70286880Y-147219520D03*
X216910920Y-90139520D03*
X216910920Y-83637120D03*
X221432120Y-90139520D03*
X221432120Y-83637120D03*
X216910920Y-101559520D03*
X216910920Y-95057120D03*
X221432120Y-101559520D03*
X221432120Y-95057120D03*
X216910920Y-112979520D03*
X216910920Y-106477120D03*
X221432120Y-112979520D03*
X221432120Y-106477120D03*
X216910920Y-124399520D03*
X216910920Y-117897120D03*
X221432120Y-124399520D03*
X221432120Y-117897120D03*
X216910920Y-135819520D03*
X216910920Y-129317120D03*
X221432120Y-135819520D03*
X221432120Y-129317120D03*
X216910920Y-147239520D03*
X216910920Y-140737120D03*
X221432120Y-147239520D03*
X221432120Y-140737120D03*
D21*
X145796000Y-76057600D03*
D22*
X145796000Y-88757600D03*
D21*
X156437661Y-78174358D03*
D23*
X151577581Y-89907628D02*
X151577581Y-89907628D01*
D21*
X165459225Y-84202375D03*
D23*
X156478969Y-93182631D02*
X156478969Y-93182631D01*
D21*
X171487242Y-93223939D03*
D23*
X159753972Y-98084019D02*
X159753972Y-98084019D01*
D21*
X173604000Y-103865600D03*
D22*
X160904000Y-103865600D03*
D21*
X171487242Y-114507261D03*
D23*
X159753972Y-109647181D02*
X159753972Y-109647181D01*
D21*
X165459225Y-123528825D03*
D23*
X156478969Y-114548569D02*
X156478969Y-114548569D01*
D21*
X156437661Y-129556842D03*
D23*
X151577581Y-117823572D02*
X151577581Y-117823572D01*
D21*
X145796000Y-131673600D03*
D22*
X145796000Y-118973600D03*
D21*
X135154339Y-129556842D03*
D23*
X140014419Y-117823572D02*
X140014419Y-117823572D01*
D21*
X126132775Y-123528825D03*
D23*
X135113031Y-114548569D02*
X135113031Y-114548569D01*
D21*
X120104758Y-114507261D03*
D23*
X131838028Y-109647181D02*
X131838028Y-109647181D01*
D21*
X117988000Y-103865600D03*
D22*
X130688000Y-103865600D03*
D21*
X120104758Y-93223939D03*
D23*
X131838028Y-98084019D02*
X131838028Y-98084019D01*
D21*
X126132775Y-84202375D03*
D23*
X135113031Y-93182631D02*
X135113031Y-93182631D01*
D21*
X135154339Y-78174358D03*
D23*
X140014419Y-89907628D02*
X140014419Y-89907628D01*
D16*
X71831200Y-38912800D03*
D19*
X72768700Y-49644300D03*
X79768700Y-49644300D03*
D24*
X80721200Y-38912800D03*
X80721200Y-36372800D03*
D25*
X80721200Y-41452800D03*
D26*
X84975700Y-66090800D03*
X84975700Y-62090800D03*
X84975700Y-77520300D03*
X84975700Y-73520300D03*
X84975700Y-88887300D03*
X84975700Y-84887300D03*
X84975700Y-100380800D03*
X84975700Y-96380800D03*
X84975700Y-111747300D03*
X84975700Y-107747300D03*
X84975700Y-123240800D03*
X84975700Y-119240800D03*
X84975700Y-134607300D03*
X84975700Y-130607300D03*
X84975700Y-146037300D03*
X84975700Y-142037300D03*
X206641700Y-145973800D03*
X206641700Y-141973800D03*
X206641700Y-134543800D03*
X206641700Y-130543800D03*
X206641700Y-123240800D03*
X206641700Y-119240800D03*
X206641700Y-111810800D03*
X206641700Y-107810800D03*
X206641700Y-100380800D03*
X206641700Y-96380800D03*
X206641700Y-88950800D03*
X206641700Y-84950800D03*
M02*
