G04 #@! TF.FileFunction,Legend,Bot*
%FSLAX46Y46*%
G04 Gerber Fmt 4.6, Leading zero omitted, Abs format (unit mm)*
G04 Created by KiCad (PCBNEW 4.0.6) date Saturday, 24. November 2018 'u26' 13:26:01*
%MOMM*%
%LPD*%
G01*
G04 APERTURE LIST*
%ADD10C,0.100000*%
%ADD11C,0.250000*%
%ADD12C,0.152400*%
%ADD13C,0.150000*%
G04 APERTURE END LIST*
D10*
D11*
X190211105Y-143025181D02*
X190211105Y-142025181D01*
X189830152Y-142025181D01*
X189734914Y-142072800D01*
X189687295Y-142120419D01*
X189639676Y-142215657D01*
X189639676Y-142358514D01*
X189687295Y-142453752D01*
X189734914Y-142501371D01*
X189830152Y-142548990D01*
X190211105Y-142548990D01*
X189020629Y-142025181D02*
X188830152Y-142025181D01*
X188734914Y-142072800D01*
X188639676Y-142168038D01*
X188592057Y-142358514D01*
X188592057Y-142691848D01*
X188639676Y-142882324D01*
X188734914Y-142977562D01*
X188830152Y-143025181D01*
X189020629Y-143025181D01*
X189115867Y-142977562D01*
X189211105Y-142882324D01*
X189258724Y-142691848D01*
X189258724Y-142358514D01*
X189211105Y-142168038D01*
X189115867Y-142072800D01*
X189020629Y-142025181D01*
X187687295Y-143025181D02*
X188163486Y-143025181D01*
X188163486Y-142025181D01*
X187401581Y-142739467D02*
X186925390Y-142739467D01*
X187496819Y-143025181D02*
X187163486Y-142025181D01*
X186830152Y-143025181D01*
X185925390Y-143025181D02*
X186258724Y-142548990D01*
X186496819Y-143025181D02*
X186496819Y-142025181D01*
X186115866Y-142025181D01*
X186020628Y-142072800D01*
X185973009Y-142120419D01*
X185925390Y-142215657D01*
X185925390Y-142358514D01*
X185973009Y-142453752D01*
X186020628Y-142501371D01*
X186115866Y-142548990D01*
X186496819Y-142548990D01*
X185306343Y-142025181D02*
X185115866Y-142025181D01*
X185020628Y-142072800D01*
X184925390Y-142168038D01*
X184877771Y-142358514D01*
X184877771Y-142691848D01*
X184925390Y-142882324D01*
X185020628Y-142977562D01*
X185115866Y-143025181D01*
X185306343Y-143025181D01*
X185401581Y-142977562D01*
X185496819Y-142882324D01*
X185544438Y-142691848D01*
X185544438Y-142358514D01*
X185496819Y-142168038D01*
X185401581Y-142072800D01*
X185306343Y-142025181D01*
X184449200Y-143025181D02*
X184449200Y-142025181D01*
X183877771Y-143025181D01*
X183877771Y-142025181D01*
X182639676Y-143025181D02*
X182639676Y-142025181D01*
X182258723Y-142025181D01*
X182163485Y-142072800D01*
X182115866Y-142120419D01*
X182068247Y-142215657D01*
X182068247Y-142358514D01*
X182115866Y-142453752D01*
X182163485Y-142501371D01*
X182258723Y-142548990D01*
X182639676Y-142548990D01*
X181068247Y-142929943D02*
X181115866Y-142977562D01*
X181258723Y-143025181D01*
X181353961Y-143025181D01*
X181496819Y-142977562D01*
X181592057Y-142882324D01*
X181639676Y-142787086D01*
X181687295Y-142596610D01*
X181687295Y-142453752D01*
X181639676Y-142263276D01*
X181592057Y-142168038D01*
X181496819Y-142072800D01*
X181353961Y-142025181D01*
X181258723Y-142025181D01*
X181115866Y-142072800D01*
X181068247Y-142120419D01*
X180306342Y-142501371D02*
X180163485Y-142548990D01*
X180115866Y-142596610D01*
X180068247Y-142691848D01*
X180068247Y-142834705D01*
X180115866Y-142929943D01*
X180163485Y-142977562D01*
X180258723Y-143025181D01*
X180639676Y-143025181D01*
X180639676Y-142025181D01*
X180306342Y-142025181D01*
X180211104Y-142072800D01*
X180163485Y-142120419D01*
X180115866Y-142215657D01*
X180115866Y-142310895D01*
X180163485Y-142406133D01*
X180211104Y-142453752D01*
X180306342Y-142501371D01*
X180639676Y-142501371D01*
X178877771Y-143025181D02*
X178877771Y-142358514D01*
X178877771Y-142548990D02*
X178830152Y-142453752D01*
X178782533Y-142406133D01*
X178687295Y-142358514D01*
X178592056Y-142358514D01*
X177877770Y-142977562D02*
X177973008Y-143025181D01*
X178163485Y-143025181D01*
X178258723Y-142977562D01*
X178306342Y-142882324D01*
X178306342Y-142501371D01*
X178258723Y-142406133D01*
X178163485Y-142358514D01*
X177973008Y-142358514D01*
X177877770Y-142406133D01*
X177830151Y-142501371D01*
X177830151Y-142596610D01*
X178306342Y-142691848D01*
X177496818Y-142358514D02*
X177258723Y-143025181D01*
X177020627Y-142358514D01*
X176115865Y-143025181D02*
X176687294Y-143025181D01*
X176401580Y-143025181D02*
X176401580Y-142025181D01*
X176496818Y-142168038D01*
X176592056Y-142263276D01*
X176687294Y-142310895D01*
X175687294Y-142929943D02*
X175639675Y-142977562D01*
X175687294Y-143025181D01*
X175734913Y-142977562D01*
X175687294Y-142929943D01*
X175687294Y-143025181D01*
X175258723Y-142120419D02*
X175211104Y-142072800D01*
X175115866Y-142025181D01*
X174877770Y-142025181D01*
X174782532Y-142072800D01*
X174734913Y-142120419D01*
X174687294Y-142215657D01*
X174687294Y-142310895D01*
X174734913Y-142453752D01*
X175306342Y-143025181D01*
X174687294Y-143025181D01*
X189925390Y-145156133D02*
X189973010Y-145108514D01*
X190068248Y-144965657D01*
X190115867Y-144870419D01*
X190163486Y-144727562D01*
X190211105Y-144489467D01*
X190211105Y-144298990D01*
X190163486Y-144060895D01*
X190115867Y-143918038D01*
X190068248Y-143822800D01*
X189973010Y-143679943D01*
X189925390Y-143632324D01*
X189115866Y-144727562D02*
X189211104Y-144775181D01*
X189401581Y-144775181D01*
X189496819Y-144727562D01*
X189544438Y-144679943D01*
X189592057Y-144584705D01*
X189592057Y-144298990D01*
X189544438Y-144203752D01*
X189496819Y-144156133D01*
X189401581Y-144108514D01*
X189211104Y-144108514D01*
X189115866Y-144156133D01*
X188782533Y-145156133D02*
X188734914Y-145108514D01*
X188639676Y-144965657D01*
X188592057Y-144870419D01*
X188544438Y-144727562D01*
X188496819Y-144489467D01*
X188496819Y-144298990D01*
X188544438Y-144060895D01*
X188592057Y-143918038D01*
X188639676Y-143822800D01*
X188734914Y-143679943D01*
X188782533Y-143632324D01*
X187306342Y-143870419D02*
X187258723Y-143822800D01*
X187163485Y-143775181D01*
X186925389Y-143775181D01*
X186830151Y-143822800D01*
X186782532Y-143870419D01*
X186734913Y-143965657D01*
X186734913Y-144060895D01*
X186782532Y-144203752D01*
X187353961Y-144775181D01*
X186734913Y-144775181D01*
X186115866Y-143775181D02*
X186020627Y-143775181D01*
X185925389Y-143822800D01*
X185877770Y-143870419D01*
X185830151Y-143965657D01*
X185782532Y-144156133D01*
X185782532Y-144394229D01*
X185830151Y-144584705D01*
X185877770Y-144679943D01*
X185925389Y-144727562D01*
X186020627Y-144775181D01*
X186115866Y-144775181D01*
X186211104Y-144727562D01*
X186258723Y-144679943D01*
X186306342Y-144584705D01*
X186353961Y-144394229D01*
X186353961Y-144156133D01*
X186306342Y-143965657D01*
X186258723Y-143870419D01*
X186211104Y-143822800D01*
X186115866Y-143775181D01*
X184830151Y-144775181D02*
X185401580Y-144775181D01*
X185115866Y-144775181D02*
X185115866Y-143775181D01*
X185211104Y-143918038D01*
X185306342Y-144013276D01*
X185401580Y-144060895D01*
X184258723Y-144203752D02*
X184353961Y-144156133D01*
X184401580Y-144108514D01*
X184449199Y-144013276D01*
X184449199Y-143965657D01*
X184401580Y-143870419D01*
X184353961Y-143822800D01*
X184258723Y-143775181D01*
X184068246Y-143775181D01*
X183973008Y-143822800D01*
X183925389Y-143870419D01*
X183877770Y-143965657D01*
X183877770Y-144013276D01*
X183925389Y-144108514D01*
X183973008Y-144156133D01*
X184068246Y-144203752D01*
X184258723Y-144203752D01*
X184353961Y-144251371D01*
X184401580Y-144298990D01*
X184449199Y-144394229D01*
X184449199Y-144584705D01*
X184401580Y-144679943D01*
X184353961Y-144727562D01*
X184258723Y-144775181D01*
X184068246Y-144775181D01*
X183973008Y-144727562D01*
X183925389Y-144679943D01*
X183877770Y-144584705D01*
X183877770Y-144394229D01*
X183925389Y-144298990D01*
X183973008Y-144251371D01*
X184068246Y-144203752D01*
X182830151Y-143775181D02*
X182258722Y-143775181D01*
X182544437Y-144775181D02*
X182544437Y-143775181D01*
X181734913Y-143775181D02*
X181544436Y-143775181D01*
X181449198Y-143822800D01*
X181353960Y-143918038D01*
X181306341Y-144108514D01*
X181306341Y-144441848D01*
X181353960Y-144632324D01*
X181449198Y-144727562D01*
X181544436Y-144775181D01*
X181734913Y-144775181D01*
X181830151Y-144727562D01*
X181925389Y-144632324D01*
X181973008Y-144441848D01*
X181973008Y-144108514D01*
X181925389Y-143918038D01*
X181830151Y-143822800D01*
X181734913Y-143775181D01*
X180877770Y-144775181D02*
X180877770Y-143775181D01*
X180544436Y-144489467D01*
X180211103Y-143775181D01*
X180211103Y-144775181D01*
X179068246Y-143775181D02*
X178401579Y-143775181D01*
X179068246Y-144775181D01*
X178401579Y-144775181D01*
X178020627Y-143775181D02*
X178020627Y-144584705D01*
X177973008Y-144679943D01*
X177925389Y-144727562D01*
X177830151Y-144775181D01*
X177639674Y-144775181D01*
X177544436Y-144727562D01*
X177496817Y-144679943D01*
X177449198Y-144584705D01*
X177449198Y-143775181D01*
X176973008Y-144251371D02*
X176639674Y-144251371D01*
X176496817Y-144775181D02*
X176973008Y-144775181D01*
X176973008Y-143775181D01*
X176496817Y-143775181D01*
X175734912Y-144251371D02*
X175592055Y-144298990D01*
X175544436Y-144346610D01*
X175496817Y-144441848D01*
X175496817Y-144584705D01*
X175544436Y-144679943D01*
X175592055Y-144727562D01*
X175687293Y-144775181D01*
X176068246Y-144775181D01*
X176068246Y-143775181D01*
X175734912Y-143775181D01*
X175639674Y-143822800D01*
X175592055Y-143870419D01*
X175544436Y-143965657D01*
X175544436Y-144060895D01*
X175592055Y-144156133D01*
X175639674Y-144203752D01*
X175734912Y-144251371D01*
X176068246Y-144251371D01*
X174592055Y-144775181D02*
X175068246Y-144775181D01*
X175068246Y-143775181D01*
X174258722Y-144775181D02*
X174258722Y-143775181D01*
X173782532Y-144775181D02*
X173782532Y-143775181D01*
X173211103Y-144775181D01*
X173211103Y-143775181D01*
X189782533Y-145858514D02*
X189782533Y-146668038D01*
X189830152Y-146763276D01*
X189877771Y-146810895D01*
X189973010Y-146858514D01*
X190115867Y-146858514D01*
X190211105Y-146810895D01*
X189782533Y-146477562D02*
X189877771Y-146525181D01*
X190068248Y-146525181D01*
X190163486Y-146477562D01*
X190211105Y-146429943D01*
X190258724Y-146334705D01*
X190258724Y-146048990D01*
X190211105Y-145953752D01*
X190163486Y-145906133D01*
X190068248Y-145858514D01*
X189877771Y-145858514D01*
X189782533Y-145906133D01*
X189306343Y-146525181D02*
X189306343Y-145858514D01*
X189306343Y-145525181D02*
X189353962Y-145572800D01*
X189306343Y-145620419D01*
X189258724Y-145572800D01*
X189306343Y-145525181D01*
X189306343Y-145620419D01*
X188973010Y-145858514D02*
X188592058Y-145858514D01*
X188830153Y-145525181D02*
X188830153Y-146382324D01*
X188782534Y-146477562D01*
X188687296Y-146525181D01*
X188592058Y-146525181D01*
X188258724Y-146525181D02*
X188258724Y-145525181D01*
X187830152Y-146525181D02*
X187830152Y-146001371D01*
X187877771Y-145906133D01*
X187973009Y-145858514D01*
X188115867Y-145858514D01*
X188211105Y-145906133D01*
X188258724Y-145953752D01*
X186925390Y-145858514D02*
X186925390Y-146525181D01*
X187353962Y-145858514D02*
X187353962Y-146382324D01*
X187306343Y-146477562D01*
X187211105Y-146525181D01*
X187068247Y-146525181D01*
X186973009Y-146477562D01*
X186925390Y-146429943D01*
X186449200Y-146525181D02*
X186449200Y-145525181D01*
X186449200Y-145906133D02*
X186353962Y-145858514D01*
X186163485Y-145858514D01*
X186068247Y-145906133D01*
X186020628Y-145953752D01*
X185973009Y-146048990D01*
X185973009Y-146334705D01*
X186020628Y-146429943D01*
X186068247Y-146477562D01*
X186163485Y-146525181D01*
X186353962Y-146525181D01*
X186449200Y-146477562D01*
X185544438Y-146429943D02*
X185496819Y-146477562D01*
X185544438Y-146525181D01*
X185592057Y-146477562D01*
X185544438Y-146429943D01*
X185544438Y-146525181D01*
X184639676Y-146477562D02*
X184734914Y-146525181D01*
X184925391Y-146525181D01*
X185020629Y-146477562D01*
X185068248Y-146429943D01*
X185115867Y-146334705D01*
X185115867Y-146048990D01*
X185068248Y-145953752D01*
X185020629Y-145906133D01*
X184925391Y-145858514D01*
X184734914Y-145858514D01*
X184639676Y-145906133D01*
X184068248Y-146525181D02*
X184163486Y-146477562D01*
X184211105Y-146429943D01*
X184258724Y-146334705D01*
X184258724Y-146048990D01*
X184211105Y-145953752D01*
X184163486Y-145906133D01*
X184068248Y-145858514D01*
X183925390Y-145858514D01*
X183830152Y-145906133D01*
X183782533Y-145953752D01*
X183734914Y-146048990D01*
X183734914Y-146334705D01*
X183782533Y-146429943D01*
X183830152Y-146477562D01*
X183925390Y-146525181D01*
X184068248Y-146525181D01*
X183306343Y-146525181D02*
X183306343Y-145858514D01*
X183306343Y-145953752D02*
X183258724Y-145906133D01*
X183163486Y-145858514D01*
X183020628Y-145858514D01*
X182925390Y-145906133D01*
X182877771Y-146001371D01*
X182877771Y-146525181D01*
X182877771Y-146001371D02*
X182830152Y-145906133D01*
X182734914Y-145858514D01*
X182592057Y-145858514D01*
X182496819Y-145906133D01*
X182449200Y-146001371D01*
X182449200Y-146525181D01*
X181258724Y-145477562D02*
X182115867Y-146763276D01*
X181020629Y-145858514D02*
X180496819Y-145858514D01*
X181020629Y-146525181D01*
X180496819Y-146525181D01*
X179687295Y-145858514D02*
X179687295Y-146525181D01*
X180115867Y-145858514D02*
X180115867Y-146382324D01*
X180068248Y-146477562D01*
X179973010Y-146525181D01*
X179830152Y-146525181D01*
X179734914Y-146477562D01*
X179687295Y-146429943D01*
X178830152Y-146477562D02*
X178925390Y-146525181D01*
X179115867Y-146525181D01*
X179211105Y-146477562D01*
X179258724Y-146382324D01*
X179258724Y-146001371D01*
X179211105Y-145906133D01*
X179115867Y-145858514D01*
X178925390Y-145858514D01*
X178830152Y-145906133D01*
X178782533Y-146001371D01*
X178782533Y-146096610D01*
X179258724Y-146191848D01*
X178353962Y-146525181D02*
X178353962Y-145525181D01*
X178353962Y-145906133D02*
X178258724Y-145858514D01*
X178068247Y-145858514D01*
X177973009Y-145906133D01*
X177925390Y-145953752D01*
X177877771Y-146048990D01*
X177877771Y-146334705D01*
X177925390Y-146429943D01*
X177973009Y-146477562D01*
X178068247Y-146525181D01*
X178258724Y-146525181D01*
X178353962Y-146477562D01*
X177306343Y-146525181D02*
X177401581Y-146477562D01*
X177449200Y-146382324D01*
X177449200Y-145525181D01*
X176925390Y-146525181D02*
X176925390Y-145858514D01*
X176925390Y-145525181D02*
X176973009Y-145572800D01*
X176925390Y-145620419D01*
X176877771Y-145572800D01*
X176925390Y-145525181D01*
X176925390Y-145620419D01*
X176449200Y-145858514D02*
X176449200Y-146525181D01*
X176449200Y-145953752D02*
X176401581Y-145906133D01*
X176306343Y-145858514D01*
X176163485Y-145858514D01*
X176068247Y-145906133D01*
X176020628Y-146001371D01*
X176020628Y-146525181D01*
X174830152Y-145477562D02*
X175687295Y-146763276D01*
X174496819Y-146525181D02*
X174496819Y-145525181D01*
X174115866Y-145525181D01*
X174020628Y-145572800D01*
X173973009Y-145620419D01*
X173925390Y-145715657D01*
X173925390Y-145858514D01*
X173973009Y-145953752D01*
X174020628Y-146001371D01*
X174115866Y-146048990D01*
X174496819Y-146048990D01*
X173353962Y-146525181D02*
X173449200Y-146477562D01*
X173496819Y-146429943D01*
X173544438Y-146334705D01*
X173544438Y-146048990D01*
X173496819Y-145953752D01*
X173449200Y-145906133D01*
X173353962Y-145858514D01*
X173211104Y-145858514D01*
X173115866Y-145906133D01*
X173068247Y-145953752D01*
X173020628Y-146048990D01*
X173020628Y-146334705D01*
X173068247Y-146429943D01*
X173115866Y-146477562D01*
X173211104Y-146525181D01*
X173353962Y-146525181D01*
X172449200Y-146525181D02*
X172544438Y-146477562D01*
X172592057Y-146382324D01*
X172592057Y-145525181D01*
X171639675Y-146525181D02*
X171639675Y-146001371D01*
X171687294Y-145906133D01*
X171782532Y-145858514D01*
X171973009Y-145858514D01*
X172068247Y-145906133D01*
X171639675Y-146477562D02*
X171734913Y-146525181D01*
X171973009Y-146525181D01*
X172068247Y-146477562D01*
X172115866Y-146382324D01*
X172115866Y-146287086D01*
X172068247Y-146191848D01*
X171973009Y-146144229D01*
X171734913Y-146144229D01*
X171639675Y-146096610D01*
X171163485Y-146525181D02*
X171163485Y-145858514D01*
X171163485Y-146048990D02*
X171115866Y-145953752D01*
X171068247Y-145906133D01*
X170973009Y-145858514D01*
X170877770Y-145858514D01*
X170401580Y-146525181D02*
X170496818Y-146477562D01*
X170544437Y-146429943D01*
X170592056Y-146334705D01*
X170592056Y-146048990D01*
X170544437Y-145953752D01*
X170496818Y-145906133D01*
X170401580Y-145858514D01*
X170258722Y-145858514D01*
X170163484Y-145906133D01*
X170115865Y-145953752D01*
X170068246Y-146048990D01*
X170068246Y-146334705D01*
X170115865Y-146429943D01*
X170163484Y-146477562D01*
X170258722Y-146525181D01*
X170401580Y-146525181D01*
X169639675Y-145858514D02*
X169639675Y-146525181D01*
X169639675Y-145953752D02*
X169592056Y-145906133D01*
X169496818Y-145858514D01*
X169353960Y-145858514D01*
X169258722Y-145906133D01*
X169211103Y-146001371D01*
X169211103Y-146525181D01*
D12*
X184780200Y-59232800D02*
X184780200Y-38912800D01*
X190622200Y-38912800D02*
X190622200Y-59232800D01*
X184780200Y-59232800D02*
X190622200Y-59232800D01*
X184780200Y-38912800D02*
X186685200Y-38912800D01*
X190622200Y-38912800D02*
X188717200Y-38912800D01*
X188717200Y-38912800D02*
G75*
G02X186685200Y-38912800I-1016000J0D01*
G01*
D13*
X159461200Y-43992800D02*
X159461200Y-46532800D01*
X159461200Y-46532800D02*
X156921200Y-46532800D01*
X156921200Y-46532800D02*
X156921200Y-43992800D01*
X156921200Y-43992800D02*
X159461200Y-43992800D01*
X151841200Y-52882800D02*
X155651200Y-52882800D01*
X155651200Y-52882800D02*
X155651200Y-50342800D01*
X155651200Y-50342800D02*
X151841200Y-50342800D01*
X151841200Y-50342800D02*
X151841200Y-52882800D01*
X137871200Y-54152800D02*
X137871200Y-41452800D01*
X150571200Y-41452800D02*
X150571200Y-54152800D01*
X150571200Y-54152800D02*
X137871200Y-54152800D01*
X150571200Y-41452800D02*
X137871200Y-41452800D01*
X116281200Y-52882800D02*
X115011200Y-52882800D01*
X116281200Y-51612800D02*
X115011200Y-51612800D01*
X116281200Y-50342800D02*
X115011200Y-50342800D01*
X116281200Y-49072800D02*
X115011200Y-49072800D01*
X116281200Y-47802800D02*
X115011200Y-47802800D01*
X116281200Y-46532800D02*
X115011200Y-46532800D01*
X116281200Y-45262800D02*
X115011200Y-45262800D01*
X116281200Y-43992800D02*
X115011200Y-43992800D01*
X116281200Y-42722800D02*
X115011200Y-42722800D01*
X115011200Y-54152800D02*
X116281200Y-52882800D01*
X116281200Y-52882800D02*
X116281200Y-42722800D01*
X116281200Y-42722800D02*
X115011200Y-41452800D01*
X115011200Y-41452800D02*
X127711200Y-41452800D01*
X127711200Y-41452800D02*
X127711200Y-54152800D01*
X127711200Y-54152800D02*
X115011200Y-54152800D01*
X115011200Y-38912800D02*
X175971200Y-38912800D01*
X175971200Y-56692800D02*
X115011200Y-56692800D01*
X175971200Y-51612800D02*
X177241200Y-51612800D01*
X177241200Y-51612800D02*
X177241200Y-43992800D01*
X177241200Y-43992800D02*
X175971200Y-43992800D01*
X170891200Y-51612800D02*
X170891200Y-43992800D01*
X170891200Y-43992800D02*
X175971200Y-43992800D01*
X170891200Y-51612800D02*
X175971200Y-51612800D01*
X131521200Y-45262800D02*
X131521200Y-50342800D01*
X131521200Y-50342800D02*
X134061200Y-50342800D01*
X134061200Y-50342800D02*
X134061200Y-45262800D01*
X134061200Y-45262800D02*
X131521200Y-45262800D01*
X115011200Y-38912800D02*
X115011200Y-56692800D01*
X175971200Y-56692800D02*
X175971200Y-38912800D01*
D12*
X197480200Y-59232800D02*
X197480200Y-38912800D01*
X203322200Y-38912800D02*
X203322200Y-59232800D01*
X197480200Y-59232800D02*
X203322200Y-59232800D01*
X197480200Y-38912800D02*
X199385200Y-38912800D01*
X203322200Y-38912800D02*
X201417200Y-38912800D01*
X201417200Y-38912800D02*
G75*
G02X199385200Y-38912800I-1016000J0D01*
G01*
X100660200Y-59232800D02*
X100660200Y-38912800D01*
X106502200Y-38912800D02*
X106502200Y-59232800D01*
X100660200Y-59232800D02*
X106502200Y-59232800D01*
X100660200Y-38912800D02*
X102565200Y-38912800D01*
X106502200Y-38912800D02*
X104597200Y-38912800D01*
X104597200Y-38912800D02*
G75*
G02X102565200Y-38912800I-1016000J0D01*
G01*
X87960200Y-59232800D02*
X87960200Y-38912800D01*
X93802200Y-38912800D02*
X93802200Y-59232800D01*
X87960200Y-59232800D02*
X93802200Y-59232800D01*
X87960200Y-38912800D02*
X89865200Y-38912800D01*
X93802200Y-38912800D02*
X91897200Y-38912800D01*
X91897200Y-38912800D02*
G75*
G02X89865200Y-38912800I-1016000J0D01*
G01*
M02*
