G04 #@! TF.FileFunction,Soldermask,Top*
%FSLAX46Y46*%
G04 Gerber Fmt 4.6, Leading zero omitted, Abs format (unit mm)*
G04 Created by KiCad (PCBNEW 4.0.6) date Thursday, 30. August 2018 'u42' 16:42:36*
%MOMM*%
%LPD*%
G01*
G04 APERTURE LIST*
%ADD10C,0.100000*%
%ADD11O,3.041600X1.720800*%
%ADD12R,1.400000X2.000000*%
%ADD13C,2.000000*%
%ADD14R,2.000000X2.000000*%
%ADD15O,3.399740X1.898600*%
%ADD16O,1.898600X3.399740*%
%ADD17C,1.997660*%
%ADD18R,2.000000X1.400000*%
%ADD19C,2.800000*%
%ADD20O,2.800000X2.800000*%
%ADD21C,2.800000*%
%ADD22C,2.279600*%
%ADD23C,2.100000*%
%ADD24R,3.200000X2.600000*%
%ADD25R,3.200000X3.200000*%
G04 APERTURE END LIST*
D10*
D11*
X107391200Y-40182800D03*
X107391200Y-42722800D03*
X107391200Y-45262800D03*
X107391200Y-47802800D03*
X107391200Y-50342800D03*
X107391200Y-52882800D03*
X107391200Y-55422800D03*
X107391200Y-57962800D03*
X99771200Y-57962800D03*
X99771200Y-55422800D03*
X99771200Y-52882800D03*
X99771200Y-50342800D03*
X99771200Y-47802800D03*
X99771200Y-45262800D03*
X99771200Y-42722800D03*
X99771200Y-40182800D03*
X94691200Y-40182800D03*
X94691200Y-42722800D03*
X94691200Y-45262800D03*
X94691200Y-47802800D03*
X94691200Y-50342800D03*
X94691200Y-52882800D03*
X94691200Y-55422800D03*
X94691200Y-57962800D03*
X87071200Y-57962800D03*
X87071200Y-55422800D03*
X87071200Y-52882800D03*
X87071200Y-50342800D03*
X87071200Y-47802800D03*
X87071200Y-45262800D03*
X87071200Y-42722800D03*
X87071200Y-40182800D03*
X191511200Y-40182800D03*
X191511200Y-42722800D03*
X191511200Y-45262800D03*
X191511200Y-47802800D03*
X191511200Y-50342800D03*
X191511200Y-52882800D03*
X191511200Y-55422800D03*
X191511200Y-57962800D03*
X183891200Y-57962800D03*
X183891200Y-55422800D03*
X183891200Y-52882800D03*
X183891200Y-50342800D03*
X183891200Y-47802800D03*
X183891200Y-45262800D03*
X183891200Y-42722800D03*
X183891200Y-40182800D03*
X204211200Y-40182800D03*
X204211200Y-42722800D03*
X204211200Y-45262800D03*
X204211200Y-47802800D03*
X204211200Y-50342800D03*
X204211200Y-52882800D03*
X204211200Y-55422800D03*
X204211200Y-57962800D03*
X196591200Y-57962800D03*
X196591200Y-55422800D03*
X196591200Y-52882800D03*
X196591200Y-50342800D03*
X196591200Y-47802800D03*
X196591200Y-45262800D03*
X196591200Y-42722800D03*
X196591200Y-40182800D03*
D10*
G36*
X122334196Y-129448724D02*
X123324146Y-128458774D01*
X124738360Y-129872988D01*
X123748410Y-130862938D01*
X122334196Y-129448724D01*
X122334196Y-129448724D01*
G37*
G36*
X124596938Y-127185982D02*
X125586888Y-126196032D01*
X127001102Y-127610246D01*
X126011152Y-128600196D01*
X124596938Y-127185982D01*
X124596938Y-127185982D01*
G37*
G36*
X118798662Y-125913190D02*
X119788612Y-124923240D01*
X121202826Y-126337454D01*
X120212876Y-127327404D01*
X118798662Y-125913190D01*
X118798662Y-125913190D01*
G37*
G36*
X121061404Y-123650448D02*
X122051354Y-122660498D01*
X123465568Y-124074712D01*
X122475618Y-125064662D01*
X121061404Y-123650448D01*
X121061404Y-123650448D01*
G37*
D12*
X81864000Y-141549600D03*
X78664000Y-141549600D03*
X81864000Y-146549600D03*
X78664000Y-146549600D03*
X81864000Y-130129600D03*
X78664000Y-130129600D03*
X81864000Y-135129600D03*
X78664000Y-135129600D03*
X81864000Y-118709600D03*
X78664000Y-118709600D03*
X81864000Y-123709600D03*
X78664000Y-123709600D03*
X81864000Y-107289600D03*
X78664000Y-107289600D03*
X81864000Y-112289600D03*
X78664000Y-112289600D03*
X81864000Y-95869600D03*
X78664000Y-95869600D03*
X81864000Y-100869600D03*
X78664000Y-100869600D03*
X81864000Y-84449600D03*
X78664000Y-84449600D03*
X81864000Y-89449600D03*
X78664000Y-89449600D03*
X81864000Y-73029600D03*
X78664000Y-73029600D03*
X81864000Y-78029600D03*
X78664000Y-78029600D03*
X81864000Y-61609600D03*
X78664000Y-61609600D03*
X81864000Y-66609600D03*
X78664000Y-66609600D03*
X209728000Y-146518800D03*
X212928000Y-146518800D03*
X209728000Y-141518800D03*
X212928000Y-141518800D03*
X209728000Y-135098800D03*
X212928000Y-135098800D03*
X209728000Y-130098800D03*
X212928000Y-130098800D03*
X209728000Y-123678800D03*
X212928000Y-123678800D03*
X209728000Y-118678800D03*
X212928000Y-118678800D03*
X209728000Y-112258800D03*
X212928000Y-112258800D03*
X209728000Y-107258800D03*
X212928000Y-107258800D03*
X209728000Y-100838800D03*
X212928000Y-100838800D03*
X209728000Y-95838800D03*
X212928000Y-95838800D03*
D13*
X156921200Y-55422800D03*
X159461200Y-55422800D03*
X162001200Y-55422800D03*
X164541200Y-55422800D03*
X154381200Y-55422800D03*
X151841200Y-55422800D03*
X149301200Y-55422800D03*
X167081200Y-55422800D03*
X169621200Y-55422800D03*
X172161200Y-55422800D03*
X174701200Y-55422800D03*
X162001200Y-52882800D03*
X162001200Y-50342800D03*
X162001200Y-47802800D03*
X162001200Y-45262800D03*
X162001200Y-42722800D03*
X174701200Y-40182800D03*
X172161200Y-40182800D03*
X169621200Y-40182800D03*
X167081200Y-40182800D03*
X164541200Y-40182800D03*
X162001200Y-40182800D03*
X159461200Y-40182800D03*
X156921200Y-40182800D03*
X146761200Y-55422800D03*
X144221200Y-55422800D03*
X141681200Y-55422800D03*
X139141200Y-55422800D03*
X136601200Y-55422800D03*
X134061200Y-55422800D03*
X131521200Y-55422800D03*
X128981200Y-55422800D03*
X126441200Y-55422800D03*
X123901200Y-55422800D03*
X121361200Y-55422800D03*
X118821200Y-55422800D03*
D14*
X116281200Y-55422800D03*
D13*
X154381200Y-40182800D03*
X151841200Y-40182800D03*
X149301200Y-40182800D03*
X146761200Y-40182800D03*
X144221200Y-40182800D03*
X141681200Y-40182800D03*
X139141200Y-40182800D03*
X136601200Y-40182800D03*
X134061200Y-40182800D03*
X131521200Y-40182800D03*
X128981200Y-40182800D03*
X126441200Y-40182800D03*
X123901200Y-40182800D03*
X121361200Y-40182800D03*
X118821200Y-40182800D03*
X116281200Y-40182800D03*
X118821200Y-42722800D03*
X123901200Y-42722800D03*
X126441200Y-42722800D03*
X128981200Y-42722800D03*
X131521200Y-47802800D03*
X134061200Y-47802800D03*
X136601200Y-47802800D03*
X139141200Y-47802800D03*
X154381200Y-47802800D03*
X156921200Y-47802800D03*
X159461200Y-47802800D03*
X164541200Y-47802800D03*
X167081200Y-47802800D03*
X169621200Y-47802800D03*
X172161200Y-47802800D03*
X174701200Y-47802800D03*
X174701200Y-45262800D03*
X172161200Y-45262800D03*
X169621200Y-45262800D03*
X167081200Y-45262800D03*
X164541200Y-45262800D03*
X159461200Y-45262800D03*
X156921200Y-45262800D03*
X154381200Y-45262800D03*
X139141200Y-45262800D03*
X136601200Y-45262800D03*
X134061200Y-45262800D03*
X131521200Y-45262800D03*
X122631200Y-52422800D03*
X125171200Y-52422800D03*
X127711200Y-52422800D03*
X130251200Y-52422800D03*
X132791200Y-52422800D03*
D12*
X209728000Y-89418800D03*
X212928000Y-89418800D03*
X209728000Y-84418800D03*
X212928000Y-84418800D03*
D15*
X203801980Y-70662800D03*
X203801980Y-68663820D03*
X203801980Y-72661780D03*
D16*
X212801200Y-61663580D03*
X210802220Y-61663580D03*
X214800180Y-61663580D03*
D17*
X206801720Y-76662280D03*
X218800680Y-64663320D03*
D18*
X148296000Y-137845600D03*
X148296000Y-134645600D03*
X143296000Y-137845600D03*
X143296000Y-134645600D03*
D10*
G36*
X160453281Y-135331717D02*
X159917524Y-134038286D01*
X161765283Y-133272919D01*
X162301040Y-134566350D01*
X160453281Y-135331717D01*
X160453281Y-135331717D01*
G37*
G36*
X159228694Y-132375302D02*
X158692937Y-131081871D01*
X160540696Y-130316504D01*
X161076453Y-131609935D01*
X159228694Y-132375302D01*
X159228694Y-132375302D01*
G37*
G36*
X155833884Y-137245134D02*
X155298127Y-135951703D01*
X157145886Y-135186336D01*
X157681643Y-136479767D01*
X155833884Y-137245134D01*
X155833884Y-137245134D01*
G37*
G36*
X154609297Y-134288719D02*
X154073540Y-132995288D01*
X155921299Y-132229921D01*
X156457056Y-133523352D01*
X154609297Y-134288719D01*
X154609297Y-134288719D01*
G37*
G36*
X171379124Y-127327404D02*
X170389174Y-126337454D01*
X171803388Y-124923240D01*
X172793338Y-125913190D01*
X171379124Y-127327404D01*
X171379124Y-127327404D01*
G37*
G36*
X169116382Y-125064662D02*
X168126432Y-124074712D01*
X169540646Y-122660498D01*
X170530596Y-123650448D01*
X169116382Y-125064662D01*
X169116382Y-125064662D01*
G37*
G36*
X167843590Y-130862938D02*
X166853640Y-129872988D01*
X168267854Y-128458774D01*
X169257804Y-129448724D01*
X167843590Y-130862938D01*
X167843590Y-130862938D01*
G37*
G36*
X165580848Y-128600196D02*
X164590898Y-127610246D01*
X166005112Y-126196032D01*
X166995062Y-127185982D01*
X165580848Y-128600196D01*
X165580848Y-128600196D01*
G37*
G36*
X178410167Y-115751243D02*
X177116736Y-115215486D01*
X177882103Y-113367727D01*
X179175534Y-113903484D01*
X178410167Y-115751243D01*
X178410167Y-115751243D01*
G37*
G36*
X175453752Y-114526656D02*
X174160321Y-113990899D01*
X174925688Y-112143140D01*
X176219119Y-112678897D01*
X175453752Y-114526656D01*
X175453752Y-114526656D01*
G37*
G36*
X176496750Y-120370640D02*
X175203319Y-119834883D01*
X175968686Y-117987124D01*
X177262117Y-118522881D01*
X176496750Y-120370640D01*
X176496750Y-120370640D01*
G37*
G36*
X173540335Y-119146053D02*
X172246904Y-118610296D01*
X173012271Y-116762537D01*
X174305702Y-117298294D01*
X173540335Y-119146053D01*
X173540335Y-119146053D01*
G37*
D12*
X179776000Y-101365600D03*
X176576000Y-101365600D03*
X179776000Y-106365600D03*
X176576000Y-106365600D03*
D10*
G36*
X177262117Y-89208319D02*
X175968686Y-89744076D01*
X175203319Y-87896317D01*
X176496750Y-87360560D01*
X177262117Y-89208319D01*
X177262117Y-89208319D01*
G37*
G36*
X174305702Y-90432906D02*
X173012271Y-90968663D01*
X172246904Y-89120904D01*
X173540335Y-88585147D01*
X174305702Y-90432906D01*
X174305702Y-90432906D01*
G37*
G36*
X179175534Y-93827716D02*
X177882103Y-94363473D01*
X177116736Y-92515714D01*
X178410167Y-91979957D01*
X179175534Y-93827716D01*
X179175534Y-93827716D01*
G37*
G36*
X176219119Y-95052303D02*
X174925688Y-95588060D01*
X174160321Y-93740301D01*
X175453752Y-93204544D01*
X176219119Y-95052303D01*
X176219119Y-95052303D01*
G37*
G36*
X169257804Y-78282476D02*
X168267854Y-79272426D01*
X166853640Y-77858212D01*
X167843590Y-76868262D01*
X169257804Y-78282476D01*
X169257804Y-78282476D01*
G37*
G36*
X166995062Y-80545218D02*
X166005112Y-81535168D01*
X164590898Y-80120954D01*
X165580848Y-79131004D01*
X166995062Y-80545218D01*
X166995062Y-80545218D01*
G37*
G36*
X172793338Y-81818010D02*
X171803388Y-82807960D01*
X170389174Y-81393746D01*
X171379124Y-80403796D01*
X172793338Y-81818010D01*
X172793338Y-81818010D01*
G37*
G36*
X170530596Y-84080752D02*
X169540646Y-85070702D01*
X168126432Y-83656488D01*
X169116382Y-82666538D01*
X170530596Y-84080752D01*
X170530596Y-84080752D01*
G37*
G36*
X157681643Y-71251433D02*
X157145886Y-72544864D01*
X155298127Y-71779497D01*
X155833884Y-70486066D01*
X157681643Y-71251433D01*
X157681643Y-71251433D01*
G37*
G36*
X156457056Y-74207848D02*
X155921299Y-75501279D01*
X154073540Y-74735912D01*
X154609297Y-73442481D01*
X156457056Y-74207848D01*
X156457056Y-74207848D01*
G37*
G36*
X162301040Y-73164850D02*
X161765283Y-74458281D01*
X159917524Y-73692914D01*
X160453281Y-72399483D01*
X162301040Y-73164850D01*
X162301040Y-73164850D01*
G37*
G36*
X161076453Y-76121265D02*
X160540696Y-77414696D01*
X158692937Y-76649329D01*
X159228694Y-75355898D01*
X161076453Y-76121265D01*
X161076453Y-76121265D01*
G37*
D18*
X143296000Y-69885600D03*
X143296000Y-73085600D03*
X148296000Y-69885600D03*
X148296000Y-73085600D03*
D10*
G36*
X131138719Y-72399483D02*
X131674476Y-73692914D01*
X129826717Y-74458281D01*
X129290960Y-73164850D01*
X131138719Y-72399483D01*
X131138719Y-72399483D01*
G37*
G36*
X132363306Y-75355898D02*
X132899063Y-76649329D01*
X131051304Y-77414696D01*
X130515547Y-76121265D01*
X132363306Y-75355898D01*
X132363306Y-75355898D01*
G37*
G36*
X135758116Y-70486066D02*
X136293873Y-71779497D01*
X134446114Y-72544864D01*
X133910357Y-71251433D01*
X135758116Y-70486066D01*
X135758116Y-70486066D01*
G37*
G36*
X136982703Y-73442481D02*
X137518460Y-74735912D01*
X135670701Y-75501279D01*
X135134944Y-74207848D01*
X136982703Y-73442481D01*
X136982703Y-73442481D01*
G37*
G36*
X120212876Y-80403796D02*
X121202826Y-81393746D01*
X119788612Y-82807960D01*
X118798662Y-81818010D01*
X120212876Y-80403796D01*
X120212876Y-80403796D01*
G37*
G36*
X122475618Y-82666538D02*
X123465568Y-83656488D01*
X122051354Y-85070702D01*
X121061404Y-84080752D01*
X122475618Y-82666538D01*
X122475618Y-82666538D01*
G37*
G36*
X123748410Y-76868262D02*
X124738360Y-77858212D01*
X123324146Y-79272426D01*
X122334196Y-78282476D01*
X123748410Y-76868262D01*
X123748410Y-76868262D01*
G37*
G36*
X126011152Y-79131004D02*
X127001102Y-80120954D01*
X125586888Y-81535168D01*
X124596938Y-80545218D01*
X126011152Y-79131004D01*
X126011152Y-79131004D01*
G37*
G36*
X113181833Y-91979957D02*
X114475264Y-92515714D01*
X113709897Y-94363473D01*
X112416466Y-93827716D01*
X113181833Y-91979957D01*
X113181833Y-91979957D01*
G37*
G36*
X116138248Y-93204544D02*
X117431679Y-93740301D01*
X116666312Y-95588060D01*
X115372881Y-95052303D01*
X116138248Y-93204544D01*
X116138248Y-93204544D01*
G37*
G36*
X115095250Y-87360560D02*
X116388681Y-87896317D01*
X115623314Y-89744076D01*
X114329883Y-89208319D01*
X115095250Y-87360560D01*
X115095250Y-87360560D01*
G37*
G36*
X118051665Y-88585147D02*
X119345096Y-89120904D01*
X118579729Y-90968663D01*
X117286298Y-90432906D01*
X118051665Y-88585147D01*
X118051665Y-88585147D01*
G37*
D12*
X111816000Y-106365600D03*
X115016000Y-106365600D03*
X111816000Y-101365600D03*
X115016000Y-101365600D03*
D10*
G36*
X114329883Y-118522881D02*
X115623314Y-117987124D01*
X116388681Y-119834883D01*
X115095250Y-120370640D01*
X114329883Y-118522881D01*
X114329883Y-118522881D01*
G37*
G36*
X117286298Y-117298294D02*
X118579729Y-116762537D01*
X119345096Y-118610296D01*
X118051665Y-119146053D01*
X117286298Y-117298294D01*
X117286298Y-117298294D01*
G37*
G36*
X112416466Y-113903484D02*
X113709897Y-113367727D01*
X114475264Y-115215486D01*
X113181833Y-115751243D01*
X112416466Y-113903484D01*
X112416466Y-113903484D01*
G37*
G36*
X115372881Y-112678897D02*
X116666312Y-112143140D01*
X117431679Y-113990899D01*
X116138248Y-114526656D01*
X115372881Y-112678897D01*
X115372881Y-112678897D01*
G37*
G36*
X133910357Y-136479767D02*
X134446114Y-135186336D01*
X136293873Y-135951703D01*
X135758116Y-137245134D01*
X133910357Y-136479767D01*
X133910357Y-136479767D01*
G37*
G36*
X135134944Y-133523352D02*
X135670701Y-132229921D01*
X137518460Y-132995288D01*
X136982703Y-134288719D01*
X135134944Y-133523352D01*
X135134944Y-133523352D01*
G37*
G36*
X129290960Y-134566350D02*
X129826717Y-133272919D01*
X131674476Y-134038286D01*
X131138719Y-135331717D01*
X129290960Y-134566350D01*
X129290960Y-134566350D01*
G37*
G36*
X130515547Y-131609935D02*
X131051304Y-130316504D01*
X132899063Y-131081871D01*
X132363306Y-132375302D01*
X130515547Y-131609935D01*
X130515547Y-131609935D01*
G37*
D19*
X145796000Y-131673600D03*
D20*
X145796000Y-118973600D03*
D19*
X156437661Y-129556842D03*
D21*
X151577581Y-117823572D02*
X151577581Y-117823572D01*
D19*
X165459225Y-123528825D03*
D21*
X156478969Y-114548569D02*
X156478969Y-114548569D01*
D19*
X171487242Y-114507261D03*
D21*
X159753972Y-109647181D02*
X159753972Y-109647181D01*
D19*
X173604000Y-103865600D03*
D20*
X160904000Y-103865600D03*
D19*
X171487242Y-93223939D03*
D21*
X159753972Y-98084019D02*
X159753972Y-98084019D01*
D19*
X165459225Y-84202375D03*
D21*
X156478969Y-93182631D02*
X156478969Y-93182631D01*
D19*
X156437661Y-78174358D03*
D21*
X151577581Y-89907628D02*
X151577581Y-89907628D01*
D19*
X145796000Y-76057600D03*
D20*
X145796000Y-88757600D03*
D19*
X135154339Y-78174358D03*
D21*
X140014419Y-89907628D02*
X140014419Y-89907628D01*
D19*
X126132775Y-84202375D03*
D21*
X135113031Y-93182631D02*
X135113031Y-93182631D01*
D19*
X120104758Y-93223939D03*
D21*
X131838028Y-98084019D02*
X131838028Y-98084019D01*
D19*
X117988000Y-103865600D03*
D20*
X130688000Y-103865600D03*
D19*
X120104758Y-114507261D03*
D21*
X131838028Y-109647181D02*
X131838028Y-109647181D01*
D19*
X126132775Y-123528825D03*
D21*
X135113031Y-114548569D02*
X135113031Y-114548569D01*
D19*
X135154339Y-129556842D03*
D21*
X140014419Y-117823572D02*
X140014419Y-117823572D01*
D19*
X98044000Y-64109600D03*
D20*
X85344000Y-64109600D03*
D19*
X98044000Y-75529600D03*
D20*
X85344000Y-75529600D03*
D19*
X98044000Y-86949600D03*
D20*
X85344000Y-86949600D03*
D19*
X98044000Y-98369600D03*
D20*
X85344000Y-98369600D03*
D19*
X98044000Y-109789600D03*
D20*
X85344000Y-109789600D03*
D19*
X98044000Y-121209600D03*
D20*
X85344000Y-121209600D03*
D19*
X98044000Y-132629600D03*
D20*
X85344000Y-132629600D03*
D19*
X98044000Y-144049600D03*
D20*
X85344000Y-144049600D03*
D19*
X193548000Y-86918800D03*
D20*
X206248000Y-86918800D03*
D19*
X193548000Y-98338800D03*
D20*
X206248000Y-98338800D03*
D19*
X193548000Y-109758800D03*
D20*
X206248000Y-109758800D03*
D19*
X193548000Y-121178800D03*
D20*
X206248000Y-121178800D03*
D19*
X193548000Y-132598800D03*
D20*
X206248000Y-132598800D03*
D19*
X193548000Y-144018800D03*
D20*
X206248000Y-144018800D03*
D22*
X142544800Y-141605000D03*
X149047200Y-141605000D03*
X142544800Y-146126200D03*
X149047200Y-146126200D03*
X157234526Y-139976439D03*
X163241960Y-137488079D03*
X158964714Y-144153483D03*
X164972148Y-141665123D03*
X170182840Y-132850331D03*
X174780731Y-128252440D03*
X173379811Y-136047302D03*
X177977702Y-131449411D03*
X179418479Y-121311560D03*
X181906839Y-115304126D03*
X183595523Y-123041748D03*
X186083883Y-117034314D03*
X183535400Y-107116800D03*
X183535400Y-100614400D03*
X188056600Y-107116800D03*
X188056600Y-100614400D03*
X181906839Y-92427074D03*
X179418479Y-86419640D03*
X186083883Y-90696886D03*
X183595523Y-84689452D03*
X174780731Y-79478760D03*
X170182840Y-74880869D03*
X177977702Y-76281789D03*
X173379811Y-71683898D03*
X163241960Y-70243121D03*
X157234526Y-67754761D03*
X164972148Y-66066077D03*
X158964714Y-63577717D03*
X149047200Y-66126200D03*
X142544800Y-66126200D03*
X149047200Y-61605000D03*
X142544800Y-61605000D03*
X134357474Y-67754761D03*
X128350040Y-70243121D03*
X132627286Y-63577717D03*
X126619852Y-66066077D03*
X121409160Y-74880869D03*
X116811269Y-79478760D03*
X118212189Y-71683898D03*
X113614298Y-76281789D03*
X112173521Y-86419640D03*
X109685161Y-92427074D03*
X107996477Y-84689452D03*
X105508117Y-90696886D03*
X108056600Y-100614400D03*
X108056600Y-107116800D03*
X103535400Y-100614400D03*
X103535400Y-107116800D03*
X109685161Y-115304126D03*
X112173521Y-121311560D03*
X105508117Y-117034314D03*
X107996477Y-123041748D03*
X116811269Y-128252440D03*
X121409160Y-132850331D03*
X113614298Y-131449411D03*
X118212189Y-136047302D03*
X128350040Y-137488079D03*
X134357474Y-139976439D03*
X126619852Y-141665123D03*
X132627286Y-144153483D03*
X74808080Y-60777120D03*
X74808080Y-67279520D03*
X70286880Y-60777120D03*
X70286880Y-67279520D03*
X74808080Y-72197120D03*
X74808080Y-78699520D03*
X70286880Y-72197120D03*
X70286880Y-78699520D03*
X74808080Y-83617120D03*
X74808080Y-90119520D03*
X70286880Y-83617120D03*
X70286880Y-90119520D03*
X74808080Y-95037120D03*
X74808080Y-101539520D03*
X70286880Y-95037120D03*
X70286880Y-101539520D03*
X74808080Y-106457120D03*
X74808080Y-112959520D03*
X70286880Y-106457120D03*
X70286880Y-112959520D03*
X74808080Y-117877120D03*
X74808080Y-124379520D03*
X70286880Y-117877120D03*
X70286880Y-124379520D03*
X74808080Y-129297120D03*
X74808080Y-135799520D03*
X70286880Y-129297120D03*
X70286880Y-135799520D03*
X74808080Y-140717120D03*
X74808080Y-147219520D03*
X70286880Y-140717120D03*
X70286880Y-147219520D03*
X216910920Y-90139520D03*
X216910920Y-83637120D03*
X221432120Y-90139520D03*
X221432120Y-83637120D03*
X216910920Y-101559520D03*
X216910920Y-95057120D03*
X221432120Y-101559520D03*
X221432120Y-95057120D03*
X216910920Y-112979520D03*
X216910920Y-106477120D03*
X221432120Y-112979520D03*
X221432120Y-106477120D03*
X216910920Y-124399520D03*
X216910920Y-117897120D03*
X221432120Y-124399520D03*
X221432120Y-117897120D03*
X216910920Y-135819520D03*
X216910920Y-129317120D03*
X221432120Y-135819520D03*
X221432120Y-129317120D03*
X216910920Y-147239520D03*
X216910920Y-140737120D03*
X221432120Y-147239520D03*
X221432120Y-140737120D03*
D23*
X214706200Y-42976800D03*
D24*
X218406200Y-43876800D03*
X211006200Y-41876800D03*
D25*
X211006200Y-51276800D03*
D23*
X214706200Y-49976800D03*
M02*
