G04 #@! TF.FileFunction,Legend,Bot*
%FSLAX46Y46*%
G04 Gerber Fmt 4.6, Leading zero omitted, Abs format (unit mm)*
G04 Created by KiCad (PCBNEW 4.0.6) date Thursday, 30. August 2018 'u42' 16:42:36*
%MOMM*%
%LPD*%
G01*
G04 APERTURE LIST*
%ADD10C,0.100000*%
%ADD11C,0.152400*%
G04 APERTURE END LIST*
D10*
D11*
X100660200Y-59232800D02*
X100660200Y-38912800D01*
X106502200Y-38912800D02*
X106502200Y-59232800D01*
X100660200Y-59232800D02*
X106502200Y-59232800D01*
X100660200Y-38912800D02*
X102565200Y-38912800D01*
X106502200Y-38912800D02*
X104597200Y-38912800D01*
X104597200Y-38912800D02*
G75*
G02X102565200Y-38912800I-1016000J0D01*
G01*
X87960200Y-59232800D02*
X87960200Y-38912800D01*
X93802200Y-38912800D02*
X93802200Y-59232800D01*
X87960200Y-59232800D02*
X93802200Y-59232800D01*
X87960200Y-38912800D02*
X89865200Y-38912800D01*
X93802200Y-38912800D02*
X91897200Y-38912800D01*
X91897200Y-38912800D02*
G75*
G02X89865200Y-38912800I-1016000J0D01*
G01*
X184780200Y-59232800D02*
X184780200Y-38912800D01*
X190622200Y-38912800D02*
X190622200Y-59232800D01*
X184780200Y-59232800D02*
X190622200Y-59232800D01*
X184780200Y-38912800D02*
X186685200Y-38912800D01*
X190622200Y-38912800D02*
X188717200Y-38912800D01*
X188717200Y-38912800D02*
G75*
G02X186685200Y-38912800I-1016000J0D01*
G01*
X197480200Y-59232800D02*
X197480200Y-38912800D01*
X203322200Y-38912800D02*
X203322200Y-59232800D01*
X197480200Y-59232800D02*
X203322200Y-59232800D01*
X197480200Y-38912800D02*
X199385200Y-38912800D01*
X203322200Y-38912800D02*
X201417200Y-38912800D01*
X201417200Y-38912800D02*
G75*
G02X199385200Y-38912800I-1016000J0D01*
G01*
M02*
