<svg xmlns="http://www.w3.org/2000/svg" width="794.84" height="577.92" viewBox="0 0 794.84 577.92">
  <defs>
    <style>
      .cls-1 {
        fill: none;
      }

      .cls-1, .cls-2, .cls-3 {
        stroke: #000;
        stroke-miterlimit: 10;
      }

      .cls-2 {
        fill: #fff;
      }
    </style>
  </defs>
  <title>led-ordering</title>
  <g id="Polaron">
    <rect id="Outline" class="cls-1" x="31.77" y="18.08" width="730.53" height="537.77" rx="11" ry="11"/>
    <g>
      <path d="M525.21,518.6a4.62,4.62,0,0,1,0,9.24h-2.09a.21.21,0,0,0-.22.22v5.5a.44.44,0,0,1-.44.44h-1.21a.44.44,0,0,1-.44-.44V519a.44.44,0,0,1,.44-.44Zm-2.09,2.09a.21.21,0,0,0-.22.22v4.62a.21.21,0,0,0,.22.22h2.09a2.53,2.53,0,0,0,0-5.06Z"/>
      <path d="M541.78,523a34.65,34.65,0,0,1,0,6.6,4.91,4.91,0,0,1-4.95,4.58,4.85,4.85,0,0,1-5-4.58,33.08,33.08,0,0,1,0-6.6,4.94,4.94,0,0,1,5-4.58A4.85,4.85,0,0,1,541.78,523Zm-2.09,6.6a29.13,29.13,0,0,0,0-6.6,2.89,2.89,0,0,0-5.72,0,33.08,33.08,0,0,0,0,6.6,2.79,2.79,0,0,0,2.86,2.49A2.76,2.76,0,0,0,539.69,529.6Z"/>
      <path d="M547.12,531.69a.21.21,0,0,0,.22.22h4.93a.44.44,0,0,1,.44.44v1.21a.44.44,0,0,1-.44.44h-6.8a.44.44,0,0,1-.44-.44V519a.44.44,0,0,1,.44-.44h1.21a.44.44,0,0,1,.44.44Z"/>
      <path d="M561.21,530.3a.41.41,0,0,0-.42-.3h-3.65a.42.42,0,0,0-.42.3l-1,3.37a.44.44,0,0,1-.42.33h-1.21c-.35,0-.48-.24-.44-.44l4.09-14.63a.43.43,0,0,1,.42-.33h1.54a.42.42,0,0,1,.42.33l4.09,14.63c0,.2-.09.44-.44.44h-1.21a.44.44,0,0,1-.42-.33Zm-.88-2.35c.13,0,.22-.07.17-.24l-1.43-6.14c0-.09,0-.13-.09-.13h0s-.07,0-.09.13l-1.43,6.14c0,.17,0,.24.18.24Z"/>
      <path d="M568.73,527.84a.21.21,0,0,0-.22.22v5.5a.44.44,0,0,1-.44.44h-1.21a.44.44,0,0,1-.44-.44V519a.44.44,0,0,1,.44-.44h4a4.59,4.59,0,0,1,2.33,8.56c-.42.24-.57.44-.37.83l2.59,5.35a.42.42,0,0,1-.41.66h-1.24a.64.64,0,0,1-.63-.44l-2.6-5.46a.44.44,0,0,0-.42-.26Zm0-7.15a.21.21,0,0,0-.22.22v4.62a.21.21,0,0,0,.22.22h2.09a2.53,2.53,0,0,0,0-5.06Z"/>
      <path d="M588.16,523a35.49,35.49,0,0,1,0,6.6,4.92,4.92,0,0,1-5,4.58,4.85,4.85,0,0,1-5-4.58,33.08,33.08,0,0,1,0-6.6,5,5,0,0,1,5-4.58A4.86,4.86,0,0,1,588.16,523Zm-2.09,6.6a29.13,29.13,0,0,0,0-6.6,2.89,2.89,0,0,0-5.73,0,33.08,33.08,0,0,0,0,6.6,2.89,2.89,0,0,0,5.73,0Z"/>
      <path d="M598.38,534c-.24,0-.35-.07-.46-.37l-4.33-10.89a.09.09,0,0,0-.18,0v10.78a.44.44,0,0,1-.44.44h-1.12a.44.44,0,0,1-.44-.44V519a.44.44,0,0,1,.44-.44h1.83c.24,0,.35.06.46.37l4.33,10.85a.09.09,0,0,0,.18,0V519a.44.44,0,0,1,.44-.44h1.12a.44.44,0,0,1,.44.44v14.52a.44.44,0,0,1-.44.44Z"/>
    </g>
    <circle id="DrillHole" class="cls-1" cx="741.4" cy="40.69" r="15"/>
    <circle id="DrillHole-2" data-name="DrillHole" class="cls-1" cx="54.66" cy="40.69" r="15"/>
    <circle class="cls-1" cx="260.29" cy="46.5" r="4"/>
    <circle class="cls-1" cx="272.06" cy="46.5" r="4"/>
    <circle class="cls-1" cx="283.83" cy="46.5" r="4"/>
    <circle class="cls-1" cx="295.6" cy="46.5" r="4"/>
    <circle class="cls-1" cx="307.37" cy="46.5" r="4"/>
    <circle class="cls-1" cx="319.13" cy="46.5" r="4"/>
    <circle class="cls-1" cx="330.9" cy="46.5" r="4"/>
    <circle class="cls-1" cx="342.67" cy="46.5" r="4"/>
    <circle class="cls-1" cx="354.44" cy="46.5" r="4"/>
    <circle class="cls-1" cx="366.21" cy="46.5" r="4"/>
    <circle class="cls-1" cx="377.98" cy="46.5" r="4"/>
    <circle class="cls-1" cx="389.75" cy="46.5" r="4"/>
    <circle class="cls-1" cx="401.52" cy="46.5" r="4"/>
    <circle class="cls-1" cx="413.29" cy="46.5" r="4"/>
    <circle class="cls-1" cx="425.05" cy="46.5" r="4"/>
    <circle class="cls-1" cx="436.82" cy="46.5" r="4"/>
    <circle class="cls-1" cx="448.59" cy="46.5" r="4"/>
    <circle class="cls-1" cx="460.36" cy="46.5" r="4"/>
    <circle class="cls-1" cx="472.13" cy="46.5" r="4"/>
    <circle class="cls-1" cx="483.9" cy="46.5" r="4"/>
    <circle class="cls-1" cx="495.67" cy="46.5" r="4"/>
    <circle class="cls-1" cx="507.44" cy="46.5" r="4"/>
    <circle class="cls-1" cx="519.21" cy="46.5" r="4"/>
    <circle class="cls-1" cx="530.97" cy="46.5" r="4"/>
    <circle class="cls-1" cx="260.29" cy="117.15" r="4"/>
    <circle class="cls-1" cx="272.06" cy="117.15" r="4"/>
    <circle class="cls-1" cx="283.83" cy="117.15" r="4"/>
    <circle class="cls-1" cx="295.6" cy="117.15" r="4"/>
    <circle class="cls-1" cx="307.37" cy="117.15" r="4"/>
    <circle class="cls-1" cx="319.13" cy="117.15" r="4"/>
    <circle class="cls-1" cx="330.9" cy="117.15" r="4"/>
    <circle class="cls-1" cx="342.67" cy="117.15" r="4"/>
    <circle class="cls-1" cx="354.44" cy="117.15" r="4"/>
    <circle class="cls-1" cx="366.21" cy="117.15" r="4"/>
    <circle class="cls-1" cx="377.98" cy="117.15" r="4"/>
    <circle class="cls-1" cx="389.75" cy="117.15" r="4"/>
    <circle class="cls-1" cx="401.52" cy="117.15" r="4"/>
    <circle class="cls-1" cx="413.29" cy="117.15" r="4"/>
    <circle class="cls-1" cx="425.05" cy="117.15" r="4"/>
    <circle class="cls-1" cx="436.82" cy="117.15" r="4"/>
    <circle class="cls-1" cx="448.59" cy="117.15" r="4"/>
    <circle class="cls-1" cx="460.36" cy="117.15" r="4"/>
    <circle class="cls-1" cx="472.13" cy="117.15" r="4"/>
    <circle class="cls-1" cx="483.9" cy="117.15" r="4"/>
    <circle class="cls-1" cx="495.67" cy="117.15" r="4"/>
    <circle class="cls-1" cx="507.44" cy="117.15" r="4"/>
    <circle class="cls-1" cx="519.21" cy="117.15" r="4"/>
    <circle class="cls-1" cx="530.97" cy="117.15" r="4"/>
    <circle class="cls-1" cx="629.28" cy="128.91" r="4"/>
    <circle class="cls-1" cx="629.34" cy="117.14" r="4"/>
    <circle class="cls-1" cx="629.41" cy="105.36" r="4"/>
    <circle class="cls-1" cx="629.47" cy="93.59" r="4"/>
    <circle class="cls-1" cx="629.54" cy="81.82" r="4"/>
    <circle class="cls-1" cx="629.6" cy="70.05" r="4"/>
    <circle class="cls-1" cx="629.67" cy="58.27" r="4"/>
    <circle class="cls-1" cx="629.74" cy="46.5" r="4"/>
    <circle class="cls-1" cx="669.51" cy="128.91" r="4"/>
    <circle class="cls-1" cx="669.57" cy="117.14" r="4"/>
    <circle class="cls-1" cx="669.64" cy="105.36" r="4"/>
    <circle class="cls-1" cx="669.7" cy="93.59" r="4"/>
    <circle class="cls-1" cx="669.77" cy="81.82" r="4"/>
    <circle class="cls-1" cx="669.83" cy="70.05" r="4"/>
    <circle class="cls-1" cx="669.9" cy="58.27" r="4"/>
    <circle class="cls-1" cx="669.97" cy="46.5" r="4"/>
    <circle class="cls-1" cx="570.53" cy="128.91" r="4"/>
    <circle class="cls-1" cx="570.6" cy="117.14" r="4"/>
    <circle class="cls-1" cx="570.66" cy="105.36" r="4"/>
    <circle class="cls-1" cx="570.73" cy="93.59" r="4"/>
    <circle class="cls-1" cx="570.79" cy="81.82" r="4"/>
    <circle class="cls-1" cx="570.86" cy="70.05" r="4"/>
    <circle class="cls-1" cx="570.92" cy="58.27" r="4"/>
    <circle class="cls-1" cx="570.99" cy="46.5" r="4"/>
    <circle class="cls-1" cx="610.76" cy="128.91" r="4"/>
    <circle class="cls-1" cx="610.83" cy="117.14" r="4"/>
    <circle class="cls-1" cx="610.89" cy="105.36" r="4"/>
    <circle class="cls-1" cx="610.96" cy="93.59" r="4"/>
    <circle class="cls-1" cx="611.02" cy="81.82" r="4"/>
    <circle class="cls-1" cx="611.09" cy="70.05" r="4"/>
    <circle class="cls-1" cx="611.16" cy="58.27" r="4"/>
    <circle class="cls-1" cx="611.22" cy="46.5" r="4"/>
    <circle class="cls-1" cx="180.92" cy="128.91" r="4"/>
    <circle class="cls-1" cx="180.98" cy="117.14" r="4"/>
    <circle class="cls-1" cx="181.05" cy="105.36" r="4"/>
    <circle class="cls-1" cx="181.11" cy="93.59" r="4"/>
    <circle class="cls-1" cx="181.18" cy="81.82" r="4"/>
    <circle class="cls-1" cx="181.25" cy="70.05" r="4"/>
    <circle class="cls-1" cx="181.31" cy="58.27" r="4"/>
    <circle class="cls-1" cx="181.38" cy="46.5" r="4"/>
    <circle class="cls-1" cx="221.15" cy="128.91" r="4"/>
    <circle class="cls-1" cx="221.21" cy="117.14" r="4"/>
    <circle class="cls-1" cx="221.28" cy="105.36" r="4"/>
    <circle class="cls-1" cx="221.34" cy="93.59" r="4"/>
    <circle class="cls-1" cx="221.41" cy="81.82" r="4"/>
    <circle class="cls-1" cx="221.48" cy="70.05" r="4"/>
    <circle class="cls-1" cx="221.54" cy="58.27" r="4"/>
    <circle class="cls-1" cx="221.61" cy="46.5" r="4"/>
    <circle class="cls-1" cx="122.17" cy="128.91" r="4"/>
    <circle class="cls-1" cx="122.24" cy="117.14" r="4"/>
    <circle class="cls-1" cx="122.3" cy="105.36" r="4"/>
    <circle class="cls-1" cx="122.37" cy="93.59" r="4"/>
    <circle class="cls-1" cx="122.43" cy="81.82" r="4"/>
    <circle class="cls-1" cx="122.5" cy="70.05" r="4"/>
    <circle class="cls-1" cx="122.57" cy="58.27" r="4"/>
    <circle class="cls-1" cx="122.63" cy="46.5" r="4"/>
    <circle class="cls-1" cx="162.4" cy="128.91" r="4"/>
    <circle class="cls-1" cx="162.47" cy="117.14" r="4"/>
    <circle class="cls-1" cx="162.53" cy="105.36" r="4"/>
    <circle class="cls-1" cx="162.6" cy="93.59" r="4"/>
    <circle class="cls-1" cx="162.66" cy="81.82" r="4"/>
    <circle class="cls-1" cx="162.73" cy="70.05" r="4"/>
    <circle class="cls-1" cx="162.8" cy="58.27" r="4"/>
    <circle class="cls-1" cx="162.86" cy="46.5" r="4"/>
    <rect class="cls-1" x="689.08" y="74.84" width="67" height="30"/>
    <rect class="cls-2" x="756.08" y="79.84" width="10" height="20"/>
    <rect class="cls-1" x="42.35" y="142.22" width="28.56" height="28.56" rx="3" ry="3"/>
    <circle class="cls-3" cx="56.53" cy="156.5" r="8"/>
    <rect class="cls-1" x="42.35" y="195.22" width="28.56" height="28.56" rx="3" ry="3"/>
    <circle class="cls-3" cx="56.53" cy="209.5" r="8"/>
    <rect class="cls-1" x="42.35" y="248.22" width="28.56" height="28.56" rx="3" ry="3"/>
    <circle class="cls-3" cx="56.53" cy="262.5" r="8"/>
    <rect class="cls-1" x="42.35" y="301.22" width="28.56" height="28.56" rx="3" ry="3"/>
    <circle class="cls-3" cx="56.53" cy="315.5" r="8"/>
    <rect class="cls-1" x="42.35" y="354.22" width="28.56" height="28.56" rx="3" ry="3"/>
    <circle class="cls-3" cx="56.53" cy="368.5" r="8"/>
    <rect class="cls-1" x="42.35" y="407.22" width="28.56" height="28.56" rx="3" ry="3"/>
    <circle class="cls-3" cx="56.53" cy="421.5" r="8"/>
    <rect class="cls-1" x="42.35" y="460.22" width="28.56" height="28.56" rx="3" ry="3"/>
    <circle class="cls-3" cx="56.53" cy="474.5" r="8"/>
    <rect class="cls-1" x="42.35" y="513.22" width="28.56" height="28.56" rx="3" ry="3"/>
    <circle class="cls-3" cx="56.53" cy="527.5" r="8"/>
    <circle class="cls-2" cx="91.97" cy="156.5" r="8"/>
    <circle class="cls-2" cx="91.97" cy="209.5" r="8"/>
    <circle class="cls-2" cx="91.97" cy="262.5" r="8"/>
    <circle class="cls-2" cx="91.97" cy="315.5" r="8"/>
    <circle class="cls-2" cx="91.97" cy="368.5" r="8"/>
    <circle class="cls-2" cx="91.97" cy="421.5" r="8"/>
    <circle class="cls-2" cx="91.97" cy="474.5" r="8"/>
    <circle class="cls-2" cx="91.97" cy="527.5" r="8"/>
    <rect class="cls-1" x="722" y="513.54" width="28.56" height="28.56" rx="3" ry="3" transform="translate(1472.55 1055.64) rotate(180)"/>
    <circle class="cls-3" cx="736.37" cy="527.82" r="8"/>
    <rect class="cls-1" x="722" y="460.54" width="28.56" height="28.56" rx="3" ry="3" transform="translate(1472.55 949.64) rotate(180)"/>
    <circle class="cls-3" cx="736.37" cy="474.82" r="8"/>
    <rect class="cls-1" x="722" y="407.54" width="28.56" height="28.56" rx="3" ry="3" transform="translate(1472.55 843.64) rotate(180)"/>
    <circle class="cls-3" cx="736.37" cy="421.82" r="8"/>
    <rect class="cls-1" x="722" y="354.54" width="28.56" height="28.56" rx="3" ry="3" transform="translate(1472.55 737.64) rotate(180)"/>
    <circle class="cls-3" cx="736.37" cy="368.82" r="8"/>
    <rect class="cls-1" x="722" y="301.54" width="28.56" height="28.56" rx="3" ry="3" transform="translate(1472.55 631.64) rotate(180)"/>
    <circle class="cls-3" cx="736.37" cy="315.82" r="8"/>
    <rect class="cls-1" x="722" y="248.54" width="28.56" height="28.56" rx="3" ry="3" transform="translate(1472.55 525.64) rotate(180)"/>
    <circle class="cls-3" cx="736.37" cy="262.82" r="8"/>
    <circle class="cls-2" cx="700.94" cy="527.82" r="8"/>
    <circle class="cls-2" cx="700.94" cy="474.82" r="8"/>
    <circle class="cls-2" cx="700.94" cy="421.82" r="8"/>
    <circle class="cls-2" cx="700.94" cy="368.82" r="8"/>
    <circle class="cls-2" cx="700.94" cy="315.82" r="8"/>
    <circle class="cls-2" cx="700.94" cy="262.82" r="8"/>
    <rect class="cls-1" x="311.46" y="155.66" width="28.56" height="28.56" rx="3" ry="3" transform="translate(358.09 -196.03) rotate(67.5)"/>
    <circle class="cls-3" cx="325.7" cy="169.85" r="8"/>
    <rect class="cls-1" x="251.35" y="195.82" width="28.56" height="28.56" rx="3" ry="3" transform="translate(226.36 -126.29) rotate(45)"/>
    <circle class="cls-3" cx="265.56" cy="210.03" r="8"/>
    <rect class="cls-1" x="211.18" y="255.92" width="28.56" height="28.56" rx="3" ry="3" transform="translate(120.56 -65.71) rotate(22.5)"/>
    <circle class="cls-3" cx="225.37" cy="270.16" r="8"/>
    <rect class="cls-1" x="197.07" y="326.82" width="28.56" height="28.56" rx="3" ry="3"/>
    <circle class="cls-3" cx="211.25" cy="341.09" r="8"/>
    <rect class="cls-1" x="211.17" y="397.72" width="28.56" height="28.56" rx="3" ry="3" transform="translate(-140.5 117.64) rotate(-22.5)"/>
    <circle class="cls-3" cx="225.36" cy="412.03" r="8"/>
    <rect class="cls-1" x="251.32" y="457.82" width="28.56" height="28.56" rx="3" ry="3" transform="translate(-256.03 326.08) rotate(-45)"/>
    <circle class="cls-3" cx="265.53" cy="472.17" r="8"/>
    <rect class="cls-1" x="311.42" y="497.99" width="28.56" height="28.56" rx="3" ry="3" transform="translate(-272.21 617.14) rotate(-67.5)"/>
    <circle class="cls-3" cx="325.66" cy="512.36" r="8"/>
    <rect class="cls-1" x="382.32" y="512.1" width="28.56" height="28.56" rx="3" ry="3" transform="translate(-129.78 922.97) rotate(-90)"/>
    <circle class="cls-3" cx="396.6" cy="526.47" r="8"/>
    <rect class="cls-1" x="453.22" y="498" width="28.56" height="28.56" rx="3" ry="3" transform="translate(173.12 1140.23) rotate(-112.5)"/>
    <circle class="cls-3" cx="467.54" cy="512.37" r="8"/>
    <rect class="cls-1" x="513.33" y="457.85" width="28.56" height="28.56" rx="3" ry="3" transform="translate(566.84 1179.04) rotate(-135)"/>
    <circle class="cls-3" cx="527.68" cy="472.19" r="8"/>
    <rect class="cls-1" x="553.49" y="397.75" width="28.56" height="28.56" rx="3" ry="3" transform="translate(934.65 1009.96) rotate(-157.5)"/>
    <circle class="cls-3" cx="567.86" cy="412.06" r="8"/>
    <rect class="cls-1" x="567.6" y="326.85" width="28.56" height="28.56" rx="3" ry="3" transform="translate(1163.76 682.25) rotate(-180)"/>
    <circle class="cls-3" cx="581.98" cy="341.13" r="8"/>
    <rect class="cls-1" x="553.51" y="255.95" width="28.56" height="28.56" rx="3" ry="3" transform="translate(1195.76 302.6) rotate(157.5)"/>
    <circle class="cls-3" cx="567.88" cy="270.19" r="8"/>
    <rect class="cls-1" x="513.35" y="195.84" width="28.56" height="28.56" rx="3" ry="3" transform="translate(1049.3 -14.39) rotate(135)"/>
    <circle class="cls-3" cx="527.7" cy="210.05" r="8"/>
    <rect class="cls-1" x="453.25" y="155.68" width="28.56" height="28.56" rx="3" ry="3" transform="translate(803.46 -196.95) rotate(112.5)"/>
    <circle class="cls-3" cx="467.57" cy="169.86" r="8"/>
    <rect class="cls-1" x="382.35" y="141.57" width="28.56" height="28.56" rx="3" ry="3" transform="translate(552.48 -240.79) rotate(90)"/>
    <circle class="cls-3" cx="396.63" cy="155.75" r="8"/>
    <circle class="cls-2" cx="339.25" cy="202.58" r="8"/>
    <circle class="cls-2" cx="290.61" cy="235.08" r="8"/>
    <circle class="cls-2" cx="258.1" cy="283.72" r="8"/>
    <circle class="cls-2" cx="246.68" cy="341.09" r="8"/>
    <circle class="cls-2" cx="258.09" cy="398.47" r="8"/>
    <circle class="cls-2" cx="290.59" cy="447.12" r="8"/>
    <circle class="cls-2" cx="339.22" cy="479.62" r="8"/>
    <circle class="cls-2" cx="396.6" cy="491.04" r="8"/>
    <circle class="cls-2" cx="453.98" cy="479.64" r="8"/>
    <circle class="cls-2" cx="502.62" cy="447.14" r="8"/>
    <circle class="cls-2" cx="535.13" cy="398.5" r="8"/>
    <circle class="cls-2" cx="546.55" cy="341.13" r="8"/>
    <circle class="cls-2" cx="535.14" cy="283.75" r="8"/>
    <circle class="cls-2" cx="502.65" cy="235.1" r="8"/>
    <circle class="cls-2" cx="454.01" cy="202.6" r="8"/>
    <circle class="cls-2" cx="396.63" cy="191.18" r="8"/>
    <circle class="cls-3" cx="647.58" cy="195.34" r="15"/>
    <rect class="cls-1" x="624.58" y="167.34" width="46" height="56" rx="3" ry="3"/>
    <circle class="cls-3" cx="724.57" cy="195.34" r="15"/>
    <rect class="cls-1" x="701.57" y="167.34" width="46" height="56" rx="3" ry="3"/>
    <path d="M398.34,208.3v11.88a.36.36,0,0,1-.36.36h-1a.36.36,0,0,1-.36-.36V210.3a.1.1,0,0,0-.17-.07L394,212.55a.23.23,0,0,1-.39-.15v-1.09a.82.82,0,0,1,.2-.6l2.73-2.61a.57.57,0,0,1,.36-.16H398A.36.36,0,0,1,398.34,208.3Z"/>
    <path d="M443,219a.36.36,0,0,1-.36.36h-.93a.33.33,0,0,1-.37-.36v-.27a3.4,3.4,0,0,1,3.43-3.44,3.36,3.36,0,0,1,3.38,3.44,5.12,5.12,0,0,1-1.37,3.55l-3.38,3.87a.17.17,0,0,0,.14.29h4.54a.33.33,0,0,1,.36.36v.88a.33.33,0,0,1-.36.36h-6.52a.36.36,0,0,1-.36-.36v-1.17a.56.56,0,0,1,.16-.45l4.07-4.68a3.9,3.9,0,0,0,1.12-2.65,1.75,1.75,0,0,0-1.78-1.81,1.85,1.85,0,0,0-1.77,1.81Z"/>
    <path d="M486.89,253a2.08,2.08,0,0,0,4.16,0,1.94,1.94,0,0,0-2-2.18h-.22a.36.36,0,0,1-.36-.36v-1a.36.36,0,0,1,.36-.36H489a1.81,1.81,0,1,0-1.86-1.89v.27a.36.36,0,0,1-.36.36h-1a.36.36,0,0,1-.36-.36v-.27a3.51,3.51,0,0,1,7,0,3.28,3.28,0,0,1-1,2.47.26.26,0,0,0,0,.43,3.81,3.81,0,0,1,1.33,2.85,3.79,3.79,0,0,1-7.58,0v-.13a.36.36,0,0,1,.36-.36h1a.36.36,0,0,1,.36.36Z"/>
    <path d="M517.2,284.19c.1-.2.18-.25.37-.25h1.12a.36.36,0,0,1,.36.36v8.19a.17.17,0,0,0,.18.18h.87a.36.36,0,0,1,.36.36v.81a.36.36,0,0,1-.36.36h-.87a.17.17,0,0,0-.18.18v1.8a.36.36,0,0,1-.36.36h-.85a.36.36,0,0,1-.36-.36v-1.8a.17.17,0,0,0-.18-.18h-4.69a.37.37,0,0,1-.37-.36v-.79a1.43,1.43,0,0,1,.29-.69Zm.1,8.48a.17.17,0,0,0,.18-.18v-5.65c0-.11-.1-.11-.14,0l-3.15,5.73c-.05.09,0,.14.07.14Z"/>
    <path d="M522.9,343.86h.92a.36.36,0,0,1,.36.36,1.87,1.87,0,0,0,2,1.68c1.34,0,2.11-1.13,2.11-2.65s-.79-2.64-2.11-2.64a1.79,1.79,0,0,0-1.62,1.08.31.31,0,0,1-.34.19h-1a.36.36,0,0,1-.36-.36v-6.39a.36.36,0,0,1,.36-.36h5.82a.36.36,0,0,1,.35.36v.9a.36.36,0,0,1-.35.36h-4.47a.17.17,0,0,0-.18.18v2.7c0,.18.14.34.4.15a2.5,2.5,0,0,1,1.36-.43c2.25,0,3.71,2,3.71,4.26s-1.4,4.27-3.71,4.27a3.54,3.54,0,0,1-3.67-3.3A.34.34,0,0,1,522.9,343.86Z"/>
    <path d="M521.68,390.43a7.2,7.2,0,0,1,0,.93A3.74,3.74,0,0,1,518,395a3.92,3.92,0,0,1-3.78-3.75,28.65,28.65,0,0,1,0-5.4c.23-2.07,1.58-3.74,3.67-3.74a3.42,3.42,0,0,1,3.46,3.44.36.36,0,0,1-.36.36H520a.36.36,0,0,1-.36-.36,1.74,1.74,0,0,0-1.8-1.82c-1.22,0-1.8.7-2,2a8.14,8.14,0,0,0-.11,1.54.17.17,0,0,0,.29.13,3.39,3.39,0,0,1,2-.7A3.79,3.79,0,0,1,521.68,390.43ZM518,393.36a2.06,2.06,0,0,0,2-2,5.23,5.23,0,0,0,0-1,2.1,2.1,0,0,0-2-2c-1.17,0-1.87.74-2,2a5.23,5.23,0,0,0,0,1A2.06,2.06,0,0,0,518,393.36Z"/>
    <path d="M491.57,426.24a.12.12,0,0,0-.12-.18h-4.94a.36.36,0,0,1-.35-.36v-.9a.36.36,0,0,1,.35-.36H493a.36.36,0,0,1,.36.36V426a.88.88,0,0,1-.09.36l-4.36,10.4a.38.38,0,0,1-.34.27h-1.08a.31.31,0,0,1-.33-.43Z"/>
    <path d="M453.25,461.31a3.93,3.93,0,1,1-6.52-2.84.28.28,0,0,0,0-.44,3.57,3.57,0,1,1,6.27-2.46,3.36,3.36,0,0,1-1.05,2.46c-.12.13-.18.29,0,.44A3.76,3.76,0,0,1,453.25,461.31Zm-1.68,0a2.26,2.26,0,0,0-4.5,0,2.26,2.26,0,0,0,4.5,0Zm-.23-5.74a2,2,0,0,0-4,0,2,2,0,0,0,4,0Z"/>
    <path d="M399.23,470.94a7.38,7.38,0,0,0,.13-1.49c0-.17-.16-.24-.33-.11a3.49,3.49,0,0,1-2,.74,3.79,3.79,0,0,1-3.69-3.69,7.36,7.36,0,0,1,0-.94,3.75,3.75,0,0,1,3.69-3.66,3.92,3.92,0,0,1,3.78,3.75,28.65,28.65,0,0,1,0,5.4,3.86,3.86,0,0,1-3.71,3.75,3.6,3.6,0,0,1-3.65-3.44.36.36,0,0,1,.36-.36h.93a.36.36,0,0,1,.36.36,2,2,0,0,0,2,1.82C398.26,473.07,399,472.22,399.23,470.94ZM397,463.45a2.06,2.06,0,0,0-2,2,5.23,5.23,0,0,0,0,1,2.1,2.1,0,0,0,2,2c1.17,0,1.87-.74,2-2a5.23,5.23,0,0,0,0-1A2.06,2.06,0,0,0,397,463.45Z"/>
    <g>
      <path d="M347.34,452.63v11.89a.36.36,0,0,1-.36.36h-1a.36.36,0,0,1-.36-.36v-9.89a.1.1,0,0,0-.17-.07L343,456.88a.22.22,0,0,1-.39-.14v-1.1a.82.82,0,0,1,.2-.6l2.73-2.61a.57.57,0,0,1,.36-.16H347A.36.36,0,0,1,347.34,452.63Z"/>
      <path d="M357.06,455.87a28.65,28.65,0,0,1,0,5.4,3.85,3.85,0,0,1-3.87,3.75c-2.16,0-3.58-1.42-3.87-3.75a27.07,27.07,0,0,1,0-5.4,3.87,3.87,0,0,1,3.87-3.74C355.35,452.13,356.77,453.55,357.06,455.87Zm-1.62,5.4a22.17,22.17,0,0,0,0-5.4,2.25,2.25,0,0,0-4.5,0,24.37,24.37,0,0,0,0,5.4,2.25,2.25,0,0,0,4.5,0Z"/>
    </g>
    <g>
      <path d="M306,424.8v11.88a.36.36,0,0,1-.36.36h-1a.36.36,0,0,1-.36-.36V426.8a.09.09,0,0,0-.16-.07l-2.54,2.32a.23.23,0,0,1-.39-.15v-1.09a.86.86,0,0,1,.19-.6l2.74-2.61a.54.54,0,0,1,.36-.16h1.12A.36.36,0,0,1,306,424.8Z"/>
      <path d="M312.54,424.8v11.88a.36.36,0,0,1-.36.36h-.95a.36.36,0,0,1-.36-.36V426.8a.1.1,0,0,0-.17-.07l-2.53,2.32a.23.23,0,0,1-.4-.15v-1.09a.82.82,0,0,1,.2-.6l2.73-2.61a.57.57,0,0,1,.36-.16h1.12A.36.36,0,0,1,312.54,424.8Z"/>
    </g>
    <g>
      <path d="M278,382.63v11.89a.37.37,0,0,1-.36.36h-1a.36.36,0,0,1-.36-.36v-9.89a.09.09,0,0,0-.16-.07l-2.54,2.32a.22.22,0,0,1-.39-.14v-1.1a.86.86,0,0,1,.19-.6l2.74-2.61a.54.54,0,0,1,.36-.16h1.12A.36.36,0,0,1,278,382.63Z"/>
      <path d="M281.52,385.84a.37.37,0,0,1-.36.36h-.94a.33.33,0,0,1-.36-.36v-.27a3.41,3.41,0,1,1,6.81,0,5.12,5.12,0,0,1-1.37,3.54L281.91,393a.17.17,0,0,0,.15.28h4.53a.33.33,0,0,1,.36.36v.89a.34.34,0,0,1-.36.36h-6.51a.36.36,0,0,1-.36-.36v-1.17a.52.52,0,0,1,.16-.45l4.07-4.69a3.93,3.93,0,0,0,1.11-2.64,1.75,1.75,0,0,0-1.78-1.82,1.84,1.84,0,0,0-1.76,1.82Z"/>
    </g>
    <g>
      <path d="M268.67,335.13V347a.36.36,0,0,1-.36.36h-.95A.36.36,0,0,1,267,347v-9.89a.09.09,0,0,0-.16-.07l-2.54,2.32a.23.23,0,0,1-.4-.14v-1.1a.82.82,0,0,1,.2-.6l2.74-2.61a.54.54,0,0,1,.36-.16h1.11A.36.36,0,0,1,268.67,335.13Z"/>
      <path d="M272.09,343.81a2.08,2.08,0,0,0,4.16,0,1.94,1.94,0,0,0-2-2.18H274a.36.36,0,0,1-.36-.36v-.95A.36.36,0,0,1,274,340h.22a1.81,1.81,0,1,0-1.86-1.89v.27a.36.36,0,0,1-.36.36h-1a.36.36,0,0,1-.36-.36v-.27a3.51,3.51,0,0,1,7,0,3.25,3.25,0,0,1-1,2.46.27.27,0,0,0,0,.44,3.79,3.79,0,0,1,1.33,2.84,3.79,3.79,0,0,1-7.58,0v-.13a.36.36,0,0,1,.36-.36h1a.36.36,0,0,1,.36.36Z"/>
    </g>
    <g>
      <path d="M279,284.3v11.88a.36.36,0,0,1-.36.36h-1a.36.36,0,0,1-.36-.36V286.3a.09.09,0,0,0-.16-.07l-2.54,2.32a.23.23,0,0,1-.39-.15v-1.09a.86.86,0,0,1,.19-.6l2.74-2.61a.54.54,0,0,1,.36-.16h1.12A.36.36,0,0,1,279,284.3Z"/>
      <path d="M285.4,284.19c.11-.2.18-.25.37-.25h1.12a.36.36,0,0,1,.36.36v8.19a.17.17,0,0,0,.18.18h.87a.36.36,0,0,1,.36.36v.81a.36.36,0,0,1-.36.36h-.87a.17.17,0,0,0-.18.18v1.8a.36.36,0,0,1-.36.36h-.84a.37.37,0,0,1-.37-.36v-1.8a.17.17,0,0,0-.17-.18H280.8a.36.36,0,0,1-.35-.36v-.79a1.41,1.41,0,0,1,.28-.69Zm.11,8.48a.17.17,0,0,0,.17-.18v-5.65c0-.11-.1-.11-.14,0l-3.15,5.73c-.05.09,0,.14.07.14Z"/>
    </g>
    <g>
      <path d="M307,244.3v11.88a.36.36,0,0,1-.36.36h-1a.36.36,0,0,1-.36-.36V246.3a.09.09,0,0,0-.16-.07l-2.54,2.32a.23.23,0,0,1-.39-.15v-1.09a.86.86,0,0,1,.19-.6l2.74-2.61a.54.54,0,0,1,.36-.16h1.12A.36.36,0,0,1,307,244.3Z"/>
      <path d="M309.44,253h.91a.36.36,0,0,1,.36.36,1.89,1.89,0,0,0,2,1.68c1.33,0,2.1-1.14,2.1-2.65s-.79-2.65-2.1-2.65a1.78,1.78,0,0,0-1.62,1.08.31.31,0,0,1-.34.2h-1a.36.36,0,0,1-.36-.36V244.3a.36.36,0,0,1,.36-.36h5.82a.36.36,0,0,1,.36.36v.9a.36.36,0,0,1-.36.36h-4.47a.17.17,0,0,0-.18.18v2.7c0,.18.15.34.4.14a2.62,2.62,0,0,1,1.37-.43c2.25,0,3.71,2,3.71,4.27s-1.41,4.27-3.71,4.27a3.53,3.53,0,0,1-3.67-3.3A.34.34,0,0,1,309.44,253Z"/>
    </g>
    <g>
      <path d="M350,215.8v11.88a.36.36,0,0,1-.36.36h-1a.36.36,0,0,1-.36-.36V217.8a.09.09,0,0,0-.16-.07l-2.54,2.32a.23.23,0,0,1-.39-.15v-1.09a.86.86,0,0,1,.19-.6l2.74-2.61a.54.54,0,0,1,.36-.16h1.12A.36.36,0,0,1,350,215.8Z"/>
      <path d="M359.55,223.6a7.2,7.2,0,0,1,0,.93,3.74,3.74,0,0,1-3.69,3.66,3.92,3.92,0,0,1-3.78-3.75,27.84,27.84,0,0,1,0-5.4c.23-2.07,1.58-3.75,3.67-3.75a3.43,3.43,0,0,1,3.46,3.44.37.37,0,0,1-.37.36h-.93a.36.36,0,0,1-.36-.36,1.74,1.74,0,0,0-1.8-1.81c-1.23,0-1.8.7-2.05,2a7.49,7.49,0,0,0-.11,1.55.17.17,0,0,0,.29.13,3.39,3.39,0,0,1,2-.71A3.8,3.8,0,0,1,359.55,223.6Zm-3.69,2.93a2,2,0,0,0,2-2,3.93,3.93,0,0,0,0-1,2.08,2.08,0,0,0-2-2,2,2,0,0,0-2,2,3.93,3.93,0,0,0,0,1A2.05,2.05,0,0,0,355.86,226.53Z"/>
    </g>
    <g>
      <path d="M114.67,150.3v11.88a.36.36,0,0,1-.36.36h-1a.36.36,0,0,1-.36-.36V152.3a.09.09,0,0,0-.16-.07l-2.54,2.32a.23.23,0,0,1-.4-.15v-1.09a.82.82,0,0,1,.2-.6l2.74-2.61a.54.54,0,0,1,.36-.16h1.11A.36.36,0,0,1,114.67,150.3Z"/>
      <path d="M121.44,151.74a.12.12,0,0,0-.12-.18h-4.94a.36.36,0,0,1-.36-.36v-.9a.36.36,0,0,1,.36-.36h6.48a.36.36,0,0,1,.36.36v1.21a.75.75,0,0,1-.09.36l-4.35,10.4c-.08.16-.18.27-.35.27h-1.08a.31.31,0,0,1-.32-.43Z"/>
    </g>
    <g>
      <path d="M114.67,203.3v11.88a.36.36,0,0,1-.36.36h-1a.36.36,0,0,1-.36-.36V205.3a.09.09,0,0,0-.16-.07l-2.54,2.32a.23.23,0,0,1-.4-.15v-1.09a.82.82,0,0,1,.2-.6l2.74-2.61a.54.54,0,0,1,.36-.16h1.11A.36.36,0,0,1,114.67,203.3Z"/>
      <path d="M124.45,212a3.93,3.93,0,1,1-6.52-2.85c.16-.14.11-.3,0-.43a3.57,3.57,0,1,1,6.27-2.47,3.39,3.39,0,0,1-1.05,2.47c-.12.13-.18.29,0,.43A3.81,3.81,0,0,1,124.45,212Zm-1.68,0a2.26,2.26,0,0,0-4.5,0,2.26,2.26,0,0,0,4.5,0Zm-.23-5.75a2,2,0,0,0-4,0,2,2,0,0,0,4,0Z"/>
    </g>
    <g>
      <path d="M114.67,256.3v11.88a.36.36,0,0,1-.36.36h-1a.36.36,0,0,1-.36-.36V258.3a.09.09,0,0,0-.16-.07l-2.54,2.32a.23.23,0,0,1-.4-.15v-1.09a.82.82,0,0,1,.2-.6l2.74-2.61a.54.54,0,0,1,.36-.16h1.11A.36.36,0,0,1,114.67,256.3Z"/>
      <path d="M122.43,264.94a7.38,7.38,0,0,0,.13-1.49c0-.17-.16-.24-.33-.11a3.49,3.49,0,0,1-2,.74,3.79,3.79,0,0,1-3.69-3.69,7.36,7.36,0,0,1,0-.94,3.75,3.75,0,0,1,3.69-3.66,3.92,3.92,0,0,1,3.78,3.75,28.65,28.65,0,0,1,0,5.4,3.86,3.86,0,0,1-3.71,3.75,3.6,3.6,0,0,1-3.65-3.44.36.36,0,0,1,.36-.36h.93a.36.36,0,0,1,.36.36,2,2,0,0,0,2,1.82C121.46,267.07,122.16,266.22,122.43,264.94Zm-2.25-7.49a2.06,2.06,0,0,0-2,2,5.23,5.23,0,0,0,0,1,2.1,2.1,0,0,0,2,2c1.17,0,1.87-.74,2-2a5.23,5.23,0,0,0,0-1A2.06,2.06,0,0,0,120.18,257.45Z"/>
    </g>
    <g>
      <path d="M111.65,312.5a.36.36,0,0,1-.36.36h-.94a.33.33,0,0,1-.36-.36v-.27a3.41,3.41,0,1,1,6.81,0,5.12,5.12,0,0,1-1.37,3.55L112,319.65a.18.18,0,0,0,.15.29h4.54a.34.34,0,0,1,.36.36v.88a.33.33,0,0,1-.36.36h-6.52a.36.36,0,0,1-.36-.36V320a.56.56,0,0,1,.16-.45l4.07-4.68a3.9,3.9,0,0,0,1.12-2.65,1.75,1.75,0,0,0-1.79-1.81,1.85,1.85,0,0,0-1.76,1.81Z"/>
      <path d="M126.18,312.54a28.65,28.65,0,0,1,0,5.4,3.86,3.86,0,0,1-3.87,3.75c-2.17,0-3.59-1.43-3.88-3.75a27.07,27.07,0,0,1,0-5.4,3.89,3.89,0,0,1,3.88-3.75C124.47,308.79,125.89,310.22,126.18,312.54Zm-1.62,5.4a23.22,23.22,0,0,0,0-5.4,2.26,2.26,0,0,0-4.51,0,25.65,25.65,0,0,0,0,5.4,2.26,2.26,0,0,0,4.51,0Z"/>
    </g>
    <g>
      <path d="M111.65,365.5a.36.36,0,0,1-.36.36h-.94a.33.33,0,0,1-.36-.36v-.27a3.41,3.41,0,1,1,6.81,0,5.12,5.12,0,0,1-1.37,3.55L112,372.65a.18.18,0,0,0,.15.29h4.54a.34.34,0,0,1,.36.36v.88a.33.33,0,0,1-.36.36h-6.52a.36.36,0,0,1-.36-.36V373a.56.56,0,0,1,.16-.45l4.07-4.68a3.9,3.9,0,0,0,1.12-2.65,1.75,1.75,0,0,0-1.79-1.81,1.85,1.85,0,0,0-1.76,1.81Z"/>
      <path d="M123,362.3v11.88a.36.36,0,0,1-.36.36h-1a.36.36,0,0,1-.35-.36V364.3a.1.1,0,0,0-.17-.07l-2.54,2.32a.23.23,0,0,1-.39-.15v-1.09a.82.82,0,0,1,.2-.6l2.73-2.61a.57.57,0,0,1,.36-.16h1.12A.36.36,0,0,1,123,362.3Z"/>
    </g>
    <g>
      <path d="M111.65,418.5a.36.36,0,0,1-.36.36h-.94a.33.33,0,0,1-.36-.36v-.27a3.41,3.41,0,1,1,6.81,0,5.12,5.12,0,0,1-1.37,3.55L112,425.65a.18.18,0,0,0,.15.29h4.54a.34.34,0,0,1,.36.36v.88a.33.33,0,0,1-.36.36h-6.52a.36.36,0,0,1-.36-.36V426a.56.56,0,0,1,.16-.45l4.07-4.68a3.9,3.9,0,0,0,1.12-2.65,1.75,1.75,0,0,0-1.79-1.81,1.85,1.85,0,0,0-1.76,1.81Z"/>
      <path d="M120,418.5a.36.36,0,0,1-.36.36h-.93a.33.33,0,0,1-.36-.36v-.27a3.4,3.4,0,1,1,6.8,0,5.16,5.16,0,0,1-1.36,3.55l-3.39,3.87a.17.17,0,0,0,.14.29H125a.33.33,0,0,1,.36.36v.88a.33.33,0,0,1-.36.36h-6.52a.36.36,0,0,1-.36-.36V426a.53.53,0,0,1,.17-.45l4.07-4.68a3.93,3.93,0,0,0,1.11-2.65,1.75,1.75,0,0,0-1.78-1.81,1.85,1.85,0,0,0-1.77,1.81Z"/>
    </g>
    <g>
      <path d="M111.65,471.5a.36.36,0,0,1-.36.36h-.94a.33.33,0,0,1-.36-.36v-.27a3.41,3.41,0,1,1,6.81,0,5.12,5.12,0,0,1-1.37,3.55L112,478.65a.18.18,0,0,0,.15.29h4.54a.34.34,0,0,1,.36.36v.88a.33.33,0,0,1-.36.36h-6.52a.36.36,0,0,1-.36-.36V479a.56.56,0,0,1,.16-.45l4.07-4.68a3.9,3.9,0,0,0,1.12-2.65,1.75,1.75,0,0,0-1.79-1.81,1.85,1.85,0,0,0-1.76,1.81Z"/>
      <path d="M119.87,477a2.08,2.08,0,0,0,4.16,0,1.94,1.94,0,0,0-2-2.18h-.22a.36.36,0,0,1-.36-.36v-1a.36.36,0,0,1,.36-.36H122a1.81,1.81,0,1,0-1.86-1.89v.27a.36.36,0,0,1-.36.36h-1a.36.36,0,0,1-.36-.36v-.27a3.51,3.51,0,0,1,7,0,3.24,3.24,0,0,1-1,2.47c-.14.13-.18.29,0,.43a3.81,3.81,0,0,1,1.33,2.85,3.79,3.79,0,0,1-7.58,0v-.13a.36.36,0,0,1,.36-.36h1a.36.36,0,0,1,.36.36Z"/>
    </g>
    <g>
      <path d="M111.65,525.5a.36.36,0,0,1-.36.36h-.94a.33.33,0,0,1-.36-.36v-.27a3.41,3.41,0,1,1,6.81,0,5.12,5.12,0,0,1-1.37,3.55L112,532.65a.18.18,0,0,0,.15.29h4.54a.34.34,0,0,1,.36.36v.88a.33.33,0,0,1-.36.36h-6.52a.36.36,0,0,1-.36-.36V533a.56.56,0,0,1,.16-.45l4.07-4.68a3.9,3.9,0,0,0,1.12-2.65,1.75,1.75,0,0,0-1.79-1.81,1.85,1.85,0,0,0-1.76,1.81Z"/>
      <path d="M122.47,522.19c.11-.2.18-.25.38-.25H124a.36.36,0,0,1,.36.36v8.19a.17.17,0,0,0,.18.18h.87a.36.36,0,0,1,.36.36v.81a.36.36,0,0,1-.36.36h-.87a.17.17,0,0,0-.18.18v1.8a.36.36,0,0,1-.36.36h-.84a.36.36,0,0,1-.36-.36v-1.8a.17.17,0,0,0-.18-.18h-4.7a.36.36,0,0,1-.36-.36v-.79a1.41,1.41,0,0,1,.28-.69Zm.11,8.48a.17.17,0,0,0,.18-.18v-5.65c0-.11-.11-.11-.15,0l-3.15,5.73c0,.09,0,.14.07.14Z"/>
    </g>
    <g>
      <path d="M669.89,265a2.08,2.08,0,0,0,4.16,0,1.94,1.94,0,0,0-2-2.18h-.22a.36.36,0,0,1-.36-.36v-1a.36.36,0,0,1,.36-.36H672a1.81,1.81,0,1,0-1.86-1.89v.27a.36.36,0,0,1-.36.36h-1a.36.36,0,0,1-.36-.36v-.27a3.51,3.51,0,0,1,7,0,3.28,3.28,0,0,1-1,2.47.26.26,0,0,0,0,.43,3.81,3.81,0,0,1,1.33,2.85,3.79,3.79,0,0,1-7.58,0v-.13a.36.36,0,0,1,.36-.36h1a.36.36,0,0,1,.36.36Z"/>
      <path d="M684.94,259.54a28.65,28.65,0,0,1,0,5.4,3.85,3.85,0,0,1-3.87,3.75c-2.16,0-3.58-1.43-3.87-3.75a27.07,27.07,0,0,1,0-5.4,3.88,3.88,0,0,1,3.87-3.75C683.23,255.79,684.65,257.22,684.94,259.54Zm-1.62,5.4a22.17,22.17,0,0,0,0-5.4,2.25,2.25,0,0,0-4.5,0,24.38,24.38,0,0,0,0,5.4,2.25,2.25,0,0,0,4.5,0Z"/>
    </g>
    <g>
      <path d="M670,312.5a.36.36,0,0,1-.36.36h-.93a.33.33,0,0,1-.37-.36v-.27a3.4,3.4,0,0,1,3.43-3.44,3.36,3.36,0,0,1,3.38,3.44,5.12,5.12,0,0,1-1.37,3.55l-3.38,3.87a.17.17,0,0,0,.14.29h4.54a.33.33,0,0,1,.36.36v.88a.33.33,0,0,1-.36.36h-6.52a.36.36,0,0,1-.36-.36V320a.56.56,0,0,1,.16-.45l4.07-4.68a3.9,3.9,0,0,0,1.12-2.65,1.75,1.75,0,0,0-1.78-1.81,1.85,1.85,0,0,0-1.77,1.81Z"/>
      <path d="M682.55,317.94a7.43,7.43,0,0,0,.12-1.49c0-.17-.16-.24-.32-.11a3.49,3.49,0,0,1-2.05.74,3.79,3.79,0,0,1-3.69-3.69,7.36,7.36,0,0,1,0-.94,3.73,3.73,0,0,1,3.69-3.66,3.93,3.93,0,0,1,3.78,3.75,28.65,28.65,0,0,1,0,5.4c-.24,2.07-1.62,3.75-3.71,3.75a3.6,3.6,0,0,1-3.66-3.44.36.36,0,0,1,.36-.36H678a.36.36,0,0,1,.36.36,2,2,0,0,0,2,1.82C681.57,320.07,682.28,319.22,682.55,317.94Zm-2.25-7.49a2.05,2.05,0,0,0-2,2,3.93,3.93,0,0,0,0,1,2.09,2.09,0,0,0,2,2c1.17,0,1.87-.74,2-2a3.93,3.93,0,0,0,0-1A2,2,0,0,0,680.3,310.45Z"/>
    </g>
    <g>
      <path d="M670,365.5a.36.36,0,0,1-.36.36h-.93a.33.33,0,0,1-.37-.36v-.27a3.4,3.4,0,0,1,3.43-3.44,3.36,3.36,0,0,1,3.38,3.44,5.12,5.12,0,0,1-1.37,3.55l-3.38,3.87a.17.17,0,0,0,.14.29h4.54a.33.33,0,0,1,.36.36v.88a.33.33,0,0,1-.36.36h-6.52a.36.36,0,0,1-.36-.36V373a.56.56,0,0,1,.16-.45l4.07-4.68a3.9,3.9,0,0,0,1.12-2.65,1.75,1.75,0,0,0-1.78-1.81,1.85,1.85,0,0,0-1.77,1.81Z"/>
      <path d="M684.56,371a3.93,3.93,0,1,1-6.51-2.85c.16-.14.1-.3,0-.43a3.57,3.57,0,1,1,6.26-2.47,3.38,3.38,0,0,1-1,2.47c-.13.13-.18.29,0,.43A3.81,3.81,0,0,1,684.56,371Zm-1.67,0a2.26,2.26,0,0,0-4.5,0,2.26,2.26,0,0,0,4.5,0Zm-.23-5.75a2,2,0,0,0-4,0,2,2,0,0,0,4,0Z"/>
    </g>
    <g>
      <path d="M670,418.5a.36.36,0,0,1-.36.36h-.93a.33.33,0,0,1-.37-.36v-.27a3.4,3.4,0,0,1,3.43-3.44,3.36,3.36,0,0,1,3.38,3.44,5.12,5.12,0,0,1-1.37,3.55l-3.38,3.87a.17.17,0,0,0,.14.29h4.54a.33.33,0,0,1,.36.36v.88a.33.33,0,0,1-.36.36h-6.52a.36.36,0,0,1-.36-.36V426a.56.56,0,0,1,.16-.45l4.07-4.68a3.9,3.9,0,0,0,1.12-2.65,1.75,1.75,0,0,0-1.78-1.81,1.85,1.85,0,0,0-1.77,1.81Z"/>
      <path d="M681.18,416.74a.13.13,0,0,0-.13-.18h-4.93a.36.36,0,0,1-.36-.36v-.9a.36.36,0,0,1,.36-.36h6.48a.36.36,0,0,1,.36.36v1.21a.88.88,0,0,1-.09.36l-4.36,10.4a.38.38,0,0,1-.34.27h-1.08a.31.31,0,0,1-.32-.43Z"/>
    </g>
    <g>
      <path d="M670,471.5a.36.36,0,0,1-.36.36h-.93a.33.33,0,0,1-.37-.36v-.27a3.4,3.4,0,0,1,3.43-3.44,3.36,3.36,0,0,1,3.38,3.44,5.12,5.12,0,0,1-1.37,3.55l-3.38,3.87a.17.17,0,0,0,.14.29h4.54a.33.33,0,0,1,.36.36v.88a.33.33,0,0,1-.36.36h-6.52a.36.36,0,0,1-.36-.36V479a.56.56,0,0,1,.16-.45l4.07-4.68a3.9,3.9,0,0,0,1.12-2.65,1.75,1.75,0,0,0-1.78-1.81,1.85,1.85,0,0,0-1.77,1.81Z"/>
      <path d="M684.33,476.1a7.2,7.2,0,0,1,0,.93,3.74,3.74,0,0,1-3.69,3.66,3.92,3.92,0,0,1-3.78-3.75,28.65,28.65,0,0,1,0-5.4c.23-2.07,1.58-3.75,3.67-3.75a3.43,3.43,0,0,1,3.46,3.44.36.36,0,0,1-.36.36h-.94a.36.36,0,0,1-.36-.36,1.74,1.74,0,0,0-1.8-1.81c-1.22,0-1.8.7-2,2a8.25,8.25,0,0,0-.11,1.55.17.17,0,0,0,.29.13,3.39,3.39,0,0,1,2-.71A3.8,3.8,0,0,1,684.33,476.1ZM680.64,479a2.06,2.06,0,0,0,2-2,5.23,5.23,0,0,0,0-1,2.1,2.1,0,0,0-2-2c-1.17,0-1.87.74-2,2a5.23,5.23,0,0,0,0,1A2.06,2.06,0,0,0,680.64,479Z"/>
    </g>
    <g>
      <path d="M670,525.5a.36.36,0,0,1-.36.36h-.93a.33.33,0,0,1-.37-.36v-.27a3.4,3.4,0,0,1,3.43-3.44,3.36,3.36,0,0,1,3.38,3.44,5.12,5.12,0,0,1-1.37,3.55l-3.38,3.87a.17.17,0,0,0,.14.29h4.54a.33.33,0,0,1,.36.36v.88a.33.33,0,0,1-.36.36h-6.52a.36.36,0,0,1-.36-.36V533a.56.56,0,0,1,.16-.45l4.07-4.68a3.9,3.9,0,0,0,1.12-2.65,1.75,1.75,0,0,0-1.78-1.81,1.85,1.85,0,0,0-1.77,1.81Z"/>
      <path d="M677.22,531h.92a.36.36,0,0,1,.36.36,1.88,1.88,0,0,0,2,1.68c1.33,0,2.11-1.14,2.11-2.65s-.8-2.65-2.11-2.65a1.78,1.78,0,0,0-1.62,1.08.31.31,0,0,1-.34.2h-1a.36.36,0,0,1-.36-.36V522.3a.36.36,0,0,1,.36-.36h5.81a.36.36,0,0,1,.36.36v.9a.36.36,0,0,1-.36.36H679a.17.17,0,0,0-.18.18v2.7c0,.18.14.34.39.14a2.62,2.62,0,0,1,1.37-.43c2.25,0,3.71,2,3.71,4.27s-1.41,4.27-3.71,4.27a3.53,3.53,0,0,1-3.67-3.3A.34.34,0,0,1,677.22,531Z"/>
    </g>
  </g>
</svg>
