M48
;DRILL file {KiCad 4.0.6} date Thursday, 28. March 2019 'u41' 22:41:29
;FORMAT={3:3/ absolute / metric / suppress leading zeros}
FMAT,2
METRIC,TZ
T1C0.400
T2C0.800
T3C0.813
T4C1.000
T5C1.016
T6C1.100
T7C1.200
T8C3.200
T9C1.700
T10C2.000
%
G90
G05
M71
T1
X81761Y-58683
X81761Y-70683
X81761Y-82083
X81761Y-93483
X81761Y-116283
X81761Y-127883
X81761Y-139283
X81961Y-104683
X82245Y-55296
X87361Y-68283
X92405Y-136988
X108961Y-68283
X111761Y-108683
X113361Y-95883
X116961Y-121083
X118361Y-83483
X124768Y-146126
X125361Y-131483
X127561Y-72483
X137561Y-136283
X137871Y-134290
X141161Y-69883
X141935Y-136957
X147523Y-48057
X150361Y-136683
X151333Y-48057
X154361Y-70483
X162761Y-132683
X166561Y-76483
X173161Y-124483
X173685Y-47803
X174761Y-86483
X179761Y-98683
X179761Y-112483
X198664Y-136790
X208102Y-135687
X208229Y-147117
X209761Y-91483
X209761Y-103083
X209761Y-114283
X209761Y-125883
X210642Y-139751
X212039Y-136957
T2
X70561Y-55423
X73101Y-55423
X80721Y-36373
X80721Y-38913
X80721Y-41453
T3
X87071Y-40183
X87071Y-42723
X87071Y-45263
X87071Y-47803
X87071Y-50343
X87071Y-52883
X87071Y-55423
X87071Y-57963
X94691Y-40183
X94691Y-42723
X94691Y-45263
X94691Y-47803
X94691Y-50343
X94691Y-52883
X94691Y-55423
X94691Y-57963
X99771Y-40183
X99771Y-42723
X99771Y-45263
X99771Y-47803
X99771Y-50343
X99771Y-52883
X99771Y-55423
X99771Y-57963
X107391Y-40183
X107391Y-42723
X107391Y-45263
X107391Y-47803
X107391Y-50343
X107391Y-52883
X107391Y-55423
X107391Y-57963
X183891Y-40183
X183891Y-42723
X183891Y-45263
X183891Y-47803
X183891Y-50343
X183891Y-52883
X183891Y-55423
X183891Y-57963
X191511Y-40183
X191511Y-42723
X191511Y-45263
X191511Y-47803
X191511Y-50343
X191511Y-52883
X191511Y-55423
X191511Y-57963
X196591Y-40183
X196591Y-42723
X196591Y-45263
X196591Y-47803
X196591Y-50343
X196591Y-52883
X196591Y-55423
X196591Y-57963
X204211Y-40183
X204211Y-42723
X204211Y-45263
X204211Y-47803
X204211Y-50343
X204211Y-52883
X204211Y-55423
X204211Y-57963
T4
X197451Y-79172
X199951Y-79172
X202451Y-79172
X214024Y-79172
X216524Y-79172
X219024Y-79172
T5
X70287Y-60777
X70287Y-67280
X70287Y-72197
X70287Y-78700
X70287Y-83617
X70287Y-90120
X70287Y-95037
X70287Y-101540
X70287Y-106457
X70287Y-112960
X70287Y-117877
X70287Y-124380
X70287Y-129297
X70287Y-135800
X70287Y-140717
X70287Y-147220
X74808Y-60777
X74808Y-67280
X74808Y-72197
X74808Y-78700
X74808Y-83617
X74808Y-90120
X74808Y-95037
X74808Y-101540
X74808Y-106457
X74808Y-112960
X74808Y-117877
X74808Y-124380
X74808Y-129297
X74808Y-135800
X74808Y-140717
X74808Y-147220
X103535Y-100614
X103535Y-107117
X105508Y-90697
X105508Y-117034
X107996Y-84689
X107996Y-123042
X108057Y-100614
X108057Y-107117
X109685Y-92427
X109685Y-115304
X112174Y-86420
X112174Y-121312
X113614Y-76282
X113614Y-131449
X116811Y-79479
X116811Y-128252
X118212Y-71684
X118212Y-136047
X121409Y-74881
X121409Y-132850
X126620Y-66066
X126620Y-141665
X128350Y-70243
X128350Y-137488
X132627Y-63578
X132627Y-144153
X134357Y-67755
X134357Y-139976
X142545Y-61605
X142545Y-66126
X142545Y-141605
X142545Y-146126
X149047Y-61605
X149047Y-66126
X149047Y-141605
X149047Y-146126
X157235Y-67755
X157235Y-139976
X158965Y-63578
X158965Y-144153
X163242Y-70243
X163242Y-137488
X164972Y-66066
X164972Y-141665
X170183Y-74881
X170183Y-132850
X173380Y-71684
X173380Y-136047
X174781Y-79479
X174781Y-128252
X177978Y-76282
X177978Y-131449
X179418Y-86420
X179418Y-121312
X181907Y-92427
X181907Y-115304
X183535Y-100614
X183535Y-107117
X183596Y-84689
X183596Y-123042
X186084Y-90697
X186084Y-117034
X188057Y-100614
X188057Y-107117
X216911Y-83637
X216911Y-90140
X216911Y-95057
X216911Y-101560
X216911Y-106477
X216911Y-112980
X216911Y-117897
X216911Y-124400
X216911Y-129317
X216911Y-135820
X216911Y-140737
X216911Y-147240
X221432Y-83637
X221432Y-90140
X221432Y-95057
X221432Y-101560
X221432Y-106477
X221432Y-112980
X221432Y-117897
X221432Y-124400
X221432Y-129317
X221432Y-135820
X221432Y-140737
X221432Y-147240
T6
X116281Y-40183
X116281Y-55423
X118821Y-40183
X118821Y-55423
X121361Y-40183
X121361Y-55423
X123901Y-40183
X123901Y-55423
X126441Y-40183
X126441Y-55423
X128981Y-40183
X128981Y-55423
X131521Y-40183
X131521Y-55423
X134061Y-40183
X134061Y-55423
X136601Y-40183
X136601Y-55423
X139141Y-40183
X139141Y-55423
X141681Y-40183
X141681Y-55423
X144221Y-40183
X144221Y-55423
X146761Y-40183
X146761Y-55423
X149301Y-40183
X149301Y-55423
X151841Y-40183
X151841Y-55423
X154381Y-40183
X154381Y-55423
X156921Y-40183
X156921Y-55423
X159461Y-40183
X159461Y-55423
X162001Y-40183
X162001Y-55423
X164541Y-40183
X164541Y-55423
X167081Y-40183
X167081Y-55423
X169621Y-40183
X169621Y-55423
X172161Y-40183
X172161Y-55423
X174701Y-40183
X174701Y-55423
T7
X85344Y-64110
X85344Y-75530
X85344Y-86950
X85344Y-98370
X85344Y-109790
X85344Y-121210
X85344Y-132630
X85344Y-144050
X98044Y-64110
X98044Y-75530
X98044Y-86950
X98044Y-98370
X98044Y-109790
X98044Y-121210
X98044Y-132630
X98044Y-144050
X117988Y-103866
X120105Y-93224
X120105Y-114507
X126133Y-84202
X126133Y-123529
X130688Y-103866
X131838Y-98084
X131838Y-109647
X135113Y-93183
X135113Y-114549
X135154Y-78174
X135154Y-129557
X140014Y-89908
X140014Y-117824
X145796Y-76058
X145796Y-88758
X145796Y-118974
X145796Y-131674
X151578Y-89908
X151578Y-117824
X156438Y-78174
X156438Y-129557
X156479Y-93183
X156479Y-114549
X159754Y-98084
X159754Y-109647
X160904Y-103866
X165459Y-84202
X165459Y-123529
X171487Y-93224
X171487Y-114507
X173604Y-103866
X193548Y-86919
X193548Y-98339
X193548Y-109759
X193548Y-121179
X193548Y-132599
X193548Y-144019
X206248Y-86919
X206248Y-98339
X206248Y-109759
X206248Y-121179
X206248Y-132599
X206248Y-144019
T8
X71831Y-38913
X220167Y-38913
T9
X71730Y-48362
X78730Y-48362
X212659Y-49581
X219659Y-49581
T10
X195551Y-72172
X204351Y-72172
X212124Y-72172
X220924Y-72172
T0
M30
